<svg width="134" height="163" viewBox="0 0 134 163" fill="none" xmlns="http://www.w3.org/2000/svg">
<path fill-rule="evenodd" clip-rule="evenodd" d="M85.0007 77.3548C85.1461 76.8642 86.9835 74.7457 87.3277 74.4598C87.5878 74.2432 87.8378 74.0247 88.0783 73.8206C88.3638 73.5916 88.6119 73.4003 88.8304 73.2354C89.2521 72.9456 89.5968 72.6855 89.8913 72.4321C90.0658 72.2887 90.2212 72.1453 90.3761 71.976C91.1382 71.1843 91.5523 70.3376 92.4066 68.7751C93.1477 67.4221 93.8161 66.6203 93.7822 64.7035L93.753 64.7131V64.7117C93.4862 64.7958 93.2438 64.8699 93.0095 64.9378L92.9985 64.9411L92.9689 64.9498L92.8871 64.9732L92.8795 64.9746C92.3096 65.1353 91.7215 65.2753 91.045 65.3896C90.8901 65.4154 90.7117 65.4551 90.5186 65.502C89.2004 65.7549 88.5115 65.8878 88.1529 65.9323C87.9803 65.8194 87.8617 65.7186 87.7709 65.6287C87.7456 65.5359 87.6724 65.4293 87.4845 65.315C87.344 65.1773 87.1642 65.0788 86.6827 65.0047L86.6091 64.9851C87.289 64.3842 87.0451 64.6897 87.1914 64.2264C86.1042 62.532 84.6336 62.0888 84.3276 61.8884C83.2322 61.1727 84.5857 60.1639 82.2019 58.6851C81.8577 56.6656 82.2263 56.0904 80.7819 55.1155C80.1666 55.2346 79.8372 55.7036 79.4088 56.0383C79.3113 56.0732 79.1955 56.0933 79.0536 56.0938C77.6154 55.9092 76.4809 56.0101 74.9241 56.0101C73.6691 56.0106 72.9261 55.9628 72.4872 55.9847H72.4848L72.48 55.9852C71.6998 56.0259 71.8924 56.2941 71.859 57.4702L71.5692 57.6184L71.1232 57.814L71.1217 58.055L71.0773 61.2043C70.9109 61.309 70.7326 61.3749 70.5542 61.471C70.4003 61.5275 70.2951 61.5772 70.1536 61.7718C69.9714 61.9654 69.8002 62.2547 69.6544 62.7222C69.5325 63.0254 69.4775 63.2721 69.4713 63.492C69.4488 63.6168 69.4268 63.7492 69.4068 63.8907C69.4584 63.9333 69.5119 63.9916 69.5674 64.0619C69.6645 64.3354 69.8246 64.6103 69.9996 64.9698C70.1641 65.3064 70.2913 65.5885 70.3912 65.8261C70.5791 66.3917 70.7086 66.9416 70.7182 67.2681C70.7981 67.2987 70.9138 67.3642 71.0428 67.4464C71.1337 67.5182 71.2556 67.6119 71.421 67.7419C72.2228 68.3706 71.7576 68.2124 72.4294 68.745C72.5169 68.8368 72.5436 68.8506 72.5551 68.843C72.7005 68.9587 72.8621 69.1217 73.0299 69.3106C73.0652 69.4029 73.0911 69.4961 73.201 69.6414C73.4104 69.9168 73.4587 69.9006 73.5343 69.924C73.769 70.2266 73.998 70.5384 74.196 70.8028C74.3466 71.1848 74.2677 71.1915 75.7092 71.093L75.9573 71.0915C76.1768 71.4319 76.3475 71.5988 76.4775 71.7174C76.5588 71.8053 76.6434 71.8967 76.7338 72.0057C76.7835 72.1056 76.8146 72.2433 76.8303 72.4723L76.8418 73.2325C76.8409 73.3047 76.8394 73.3812 76.8375 73.4625C76.1232 74.4603 75.9325 74.2427 75.7666 75.9864C76.642 76.0098 77.2181 75.8956 77.7172 75.8124C77.9702 75.7861 78.2188 75.7646 78.4511 75.7564C78.8508 75.7431 79.3256 75.8611 79.8047 76.0452C80.0212 76.1404 80.2589 76.2608 80.5261 76.4129C81.0535 76.7141 81.9212 77.1042 82.286 77.5087C82.3802 77.6125 82.4577 77.7148 82.5265 77.8123C82.6107 77.9576 82.7149 78.1341 82.8689 78.2981C83.0611 78.5304 83.3068 78.7045 83.8079 78.781L83.8103 78.7795L83.8217 78.7814C83.8973 78.7193 83.9637 78.6509 84.0225 78.5792C84.1736 78.4104 84.2539 78.2498 84.3156 78.1011C84.4222 77.8874 84.5112 77.6851 84.6307 77.545C84.7129 77.4728 84.8238 77.4093 84.9788 77.3562L85.0007 77.3548ZM44.428 53.7032H36.6898C36.3671 53.7032 36.1041 53.9671 36.1041 54.2899C36.1041 54.6126 36.3671 54.8765 36.6898 54.8765H43.7682L43.8911 54.691C44.0096 54.2315 44.1383 54.0795 44.428 53.7032ZM66.6787 94.8506H62.0759C61.7532 94.8506 61.4898 95.1146 61.4898 95.4373C61.4898 95.76 61.7532 96.0239 62.0759 96.0239H67.2137C67.0148 95.7189 66.8355 95.3598 66.6787 94.8506ZM65.0445 84.5488H57.2595C56.9372 84.5488 56.6728 84.8128 56.6728 85.135V85.1355C56.6728 85.4582 56.9372 85.7221 57.2595 85.7221H64.6835L65.0407 84.5546L65.0445 84.5488ZM61.6877 74.2566H54.3965C54.0753 74.2566 53.8109 74.52 53.8109 74.8428V74.8433C53.8109 75.166 54.0753 75.4299 54.3965 75.4299H61.4381C61.5352 75.0723 61.5409 74.8146 61.6877 74.2566ZM41.2055 63.9314H33.4784C33.1556 63.9314 32.8912 64.1958 32.8912 64.518C32.8912 64.8407 33.1556 65.1047 33.4784 65.1047H41.7181L41.7114 65.0956L41.6564 64.966C41.4699 64.5491 41.3284 64.4616 41.2055 63.9314Z" fill="#EEB437"/>
<path fill-rule="evenodd" clip-rule="evenodd" d="M91.0845 85.2874H90.561C90.5031 85.9343 90.5605 85.8248 89.4436 86.0959C87.0502 86.6773 88.2923 88.4721 88.2923 89.5612C88.2923 89.9714 87.273 90.4299 87.5011 92.0278C87.6794 93.278 87.9993 94.0626 88.6763 94.1778H89.0511C89.3499 94.1343 89.7023 93.9942 90.1201 93.7461C90.5275 93.5047 90.5844 93.2259 90.7546 92.8286C91.0357 92.1703 91.2982 91.1586 91.5344 90.3444L92.6948 86.8264C92.7899 86.0586 92.2755 85.9548 93.1786 86.1423C93.1786 85.4944 93.0777 85.1191 92.9391 84.4966C92.7622 83.7006 92.5351 83.5538 92.4806 83.0647C91.5062 83.3195 92.3658 83.2746 91.6133 84.1084C91.0831 84.6965 91.1854 84.1007 91.0845 85.2874ZM126.058 63.949L127.048 67.017L130.272 67.0108L127.66 68.9007L128.662 71.9644L126.058 70.0649L123.453 71.9644L124.455 68.9007L121.844 67.0108L125.067 67.017L126.058 63.949ZM48.17 48.4979H40.1664C39.8432 48.4979 39.5803 48.7618 39.5803 49.0846C39.5803 49.4073 39.8432 49.6712 40.1664 49.6712H47.1626H53.8829C54.2046 49.6712 54.4695 49.9351 54.4695 50.2579C54.4695 50.5806 54.2046 50.8445 53.8829 50.8445H46.4273V50.8397L44.4278 53.7031C44.1386 54.0799 44.0095 54.2314 43.8909 54.6909L43.8024 54.8243H50.4984C50.8225 54.8243 51.0859 55.0882 51.0859 55.4109C51.0859 55.7341 50.8225 55.9975 50.4984 55.9975H42.9863V55.988L42.9003 55.9908L41.1824 58.8026H32.8126C32.488 58.8026 32.2255 59.0665 32.2255 59.3892C32.2255 59.712 32.488 59.9764 32.8126 59.9764H41.508H49.2122C49.5364 59.9764 49.7989 60.2398 49.7989 60.5625C49.7989 60.8857 49.5364 61.1496 49.2122 61.1496H41.9464L41.1915 63.8677C41.3177 64.4553 41.4626 64.5332 41.6562 64.9659L41.7112 65.0959L41.7179 65.1045H49.2361C49.5584 65.1045 49.8218 65.3689 49.8218 65.6917C49.8218 66.0139 49.5584 66.2778 49.2361 66.2778H42.5751L42.589 66.2965C42.7563 66.8267 43.3205 67.5047 43.8082 68.1616L44.4092 69.0795L44.4302 69.124H37.905C37.5832 69.124 37.3188 69.3879 37.3188 69.7106C37.3188 70.0334 37.5832 70.2968 37.905 70.2968H45.2401L45.3099 70.336L45.6542 70.3814C46.2719 70.4952 46.5855 70.7606 47.6713 71.3816C49.6186 72.4961 49.218 72.1643 51.6291 72.0548C53.7285 71.9597 53.8332 71.712 55.4606 70.9403C57.331 70.0539 56.9782 69.833 58.7687 70.8457C59.6049 71.3185 61.3017 72.3675 62.0408 72.6142C61.8137 73.1764 61.8109 73.6024 61.7124 74.1637C61.546 74.77 61.5403 75.0382 61.4466 75.3987H69.1436C69.4668 75.3987 69.7312 75.6626 69.7312 75.9853C69.7312 76.3081 69.4668 76.572 69.1436 76.572H62.4037C62.4377 76.5901 62.4726 76.6069 62.508 76.6241C62.9693 77.6601 63.8051 77.7586 64.2244 79.3823L64.2124 79.3374H57.3009C56.9772 79.3374 56.7133 79.6008 56.7133 79.9235C56.7133 80.2462 56.9772 80.5102 57.3009 80.5102H64.5275L64.5222 80.5035H72.2714C72.5951 80.5035 72.8585 80.7674 72.8585 81.0901C72.8585 81.4128 72.5951 81.6767 72.2714 81.6767H64.9124L64.9368 81.758C65.1519 83.3778 66.0106 83.0996 65.0405 84.5545L64.6833 85.722H71.8488C72.17 85.722 72.4344 85.9859 72.4344 86.3087C72.4344 86.6319 72.17 86.8953 71.8488 86.8953H64.5112V86.6902L64.4749 86.8962L64.7316 89.7032H57.9305C57.6093 89.7032 57.3453 89.9676 57.3453 90.2903C57.3453 90.6131 57.6093 90.877 57.9305 90.877H65.2447L65.2427 90.8741H73.1435C73.4657 90.8741 73.7301 91.138 73.7301 91.4607C73.7301 91.7835 73.4657 92.0474 73.1435 92.0474H66.3276L66.3386 92.0598L66.6785 94.8505C66.8334 95.3545 67.0103 95.7111 67.2068 96.0133H74.6447C74.9684 96.0133 75.2323 96.2772 75.2323 96.5999C75.2323 96.9227 74.9684 97.1866 74.6447 97.1866H68.1071C68.1602 97.9592 68.9787 99.1071 69.2215 99.9821H61.961C61.6387 99.9821 61.3744 100.246 61.3744 100.569C61.3744 100.891 61.6387 101.155 61.961 101.155H69.6279C69.6824 101.226 69.7494 101.302 69.8326 101.387C70.8811 101.938 70.097 101.986 72.4407 101.503C75.4422 100.885 74.8575 101.251 76.9655 99.6713C77.9838 98.9087 79.4349 97.385 79.913 96.085C80.3031 95.0231 80.1655 94.6435 80.8396 93.8111C81.3469 93.1858 81.9966 92.8324 82.0898 91.9159C82.4991 87.8797 81.6638 89.4656 85.4318 85.4906C86.2981 84.5765 86.051 84.4665 85.8248 83.0231C85.5518 81.2785 85.133 79.1069 84.9843 77.3556L84.9786 77.3561L84.9714 77.3589L84.9642 77.3613L84.9575 77.3637L84.9504 77.3666L84.9475 77.3675L84.9432 77.369L84.9365 77.3714L84.9226 77.3766L84.9159 77.379L84.9126 77.3805L84.9092 77.3819L84.9025 77.3848L84.8963 77.3871L84.8896 77.3895L84.8829 77.3924L84.8791 77.3938L84.8772 77.3953L84.8705 77.3977L84.8643 77.4005L84.8581 77.4034L84.8519 77.4063L84.8476 77.4082L84.8457 77.4087L84.8394 77.4115L84.8342 77.4144L84.828 77.4173L84.8217 77.4201L84.8174 77.4225L84.8165 77.423L84.8108 77.4264L84.805 77.4287L84.7993 77.4316L84.794 77.4345L84.7888 77.4373L84.7825 77.4407L84.7778 77.4436L84.772 77.4464L84.7668 77.4488L84.761 77.4522L84.7562 77.455L84.751 77.4584L84.7457 77.4617L84.741 77.4646L84.7362 77.4675L84.7352 77.4679L84.7309 77.4703L84.7261 77.4737L84.7214 77.4766L84.7166 77.4799L84.7118 77.4832L84.7108 77.4837L84.707 77.4861L84.7022 77.489L84.6979 77.4923L84.6931 77.4957L84.6888 77.499L84.6874 77.5L84.6841 77.5024L84.6797 77.5057L84.6759 77.5081L84.6711 77.5115L84.6668 77.5148L84.6649 77.5162L84.6625 77.5182L84.6544 77.5253L84.6501 77.5282L84.6463 77.5315L84.6439 77.5335L84.642 77.5349L84.6386 77.5382L84.6343 77.5416L84.6305 77.5454C84.5105 77.6855 84.4221 77.8877 84.3159 78.101L84.314 78.1057L84.313 78.1077L84.3102 78.1148L84.3073 78.122L84.304 78.1287L84.303 78.1306L84.3011 78.1359L84.2982 78.143L84.2949 78.1497L84.2925 78.1559L84.2915 78.1574L84.2887 78.1646L84.2853 78.1712L84.282 78.1789L84.281 78.1813L84.2791 78.1856L84.2753 78.1928L84.2719 78.2004L84.2691 78.2066L84.2648 78.2148L84.2614 78.2219L84.2581 78.2291L84.2566 78.2324L84.2542 78.2367L84.2509 78.2439L84.2471 78.2511L84.2432 78.2583L84.2394 78.2654L84.2356 78.2731L84.2318 78.2807L84.2294 78.2846L84.2275 78.2879L84.2236 78.2956L84.2198 78.3027L84.2189 78.3046L84.2112 78.3175L84.2064 78.3247L84.2021 78.3324L84.2002 78.3372L84.1983 78.34L84.1935 78.3472L84.1892 78.3553L84.1844 78.363L84.1835 78.3639L84.1796 78.3701L84.1749 78.3778L84.1701 78.385L84.1667 78.3902L84.1653 78.3931L84.1605 78.4007L84.1553 78.4079L84.15 78.416L84.149 78.4175L84.1447 78.4237L84.14 78.4309L84.1342 78.439L84.1304 78.4442L84.129 78.4462L84.1232 78.4543L84.118 78.4619L84.1122 78.4696L84.1103 78.472L84.1003 78.4849L84.0946 78.4925L84.0893 78.4992L84.0883 78.5007L84.0821 78.5083L84.0759 78.516L84.0697 78.5241L84.063 78.5317L84.0568 78.5399L84.0501 78.5475L84.0439 78.5547L84.0429 78.5552L84.0367 78.5633L84.0295 78.5709L84.0224 78.5791C83.9631 78.6508 83.8976 78.7196 83.822 78.7818L83.8101 78.7799L83.8077 78.7813L83.7847 78.7775C83.7618 78.7737 83.7393 78.7698 83.7173 78.7655L83.6953 78.7617L83.6738 78.7574L83.6523 78.7526L83.6351 78.7488L83.6317 78.7478L83.6112 78.7431L83.5954 78.7397L83.5911 78.7383L83.571 78.733L83.5691 78.7325L83.5514 78.7278L83.5323 78.723L83.5194 78.7192L83.5136 78.7172L83.495 78.712L83.4768 78.7058L83.4591 78.7005L83.4415 78.6943L83.4242 78.6881L83.4066 78.6823L83.3898 78.6757L83.3736 78.669L83.3573 78.6627L83.3415 78.656L83.3253 78.6489L83.3186 78.646L83.31 78.6422L83.2952 78.635L83.2813 78.6283L83.2799 78.6278L83.2655 78.6207L83.2603 78.6183L83.2507 78.613L83.2368 78.6054L83.232 78.6035L83.223 78.5982L83.2086 78.5901L83.1952 78.5824L83.1823 78.5743L83.179 78.5724L83.1685 78.5662L83.167 78.5652L83.1436 78.5494L83.1307 78.5413L83.1288 78.5403L83.1187 78.5327L83.1063 78.5241L83.1053 78.5236L83.0943 78.5155L83.0829 78.5064L83.0819 78.5059L83.0709 78.4978L83.0599 78.4882L83.0484 78.4796L83.0375 78.4705L83.0265 78.461L83.0049 78.4419L82.9954 78.4332L82.9944 78.4318L82.9844 78.4227L82.9753 78.4141L82.9739 78.4127L82.9638 78.4027L82.9557 78.3945L82.9538 78.3926L82.9442 78.3826L82.9366 78.3744L82.9342 78.3721L82.9251 78.362L82.9179 78.3544L82.9151 78.351L82.906 78.341L82.8993 78.3338L82.8964 78.33L82.8868 78.3199L82.8816 78.3128L82.8782 78.3089L82.8687 78.2979C82.7147 78.134 82.6105 77.9575 82.5268 77.8122L82.5168 77.7988L82.5134 77.794L82.5101 77.7892L82.4934 77.7663L82.49 77.7615L82.4871 77.7572L82.4862 77.7558L82.48 77.7476L82.4766 77.7429L82.4728 77.7386L82.4695 77.7338L82.4661 77.729L82.4628 77.7242L82.4594 77.7199L82.4556 77.7147L82.4518 77.7099L82.4489 77.7056L82.446 77.7017L82.4451 77.7008L82.4413 77.696L82.4379 77.6912L82.4341 77.6869L82.4303 77.6821L82.4269 77.6769L82.425 77.6745L82.4231 77.6721L82.4193 77.6673L82.4154 77.663L82.4116 77.6582L82.4083 77.6535L82.4044 77.6482L82.4035 77.6477L82.4006 77.6439L82.3968 77.6391L82.393 77.6343L82.3891 77.6295L82.3853 77.6248L82.3815 77.62L82.3772 77.6152L82.3734 77.6104L82.3695 77.6056L82.3657 77.6009L82.3619 77.5961L82.3585 77.5923L82.3576 77.5908L82.3533 77.5865L82.3495 77.5817L82.3456 77.5765L82.3413 77.5717L82.3375 77.5674L82.3351 77.5645L82.3332 77.5626L82.3294 77.5574L82.3251 77.5526L82.3208 77.5478L82.3165 77.543L82.3122 77.5382L82.3107 77.5368L82.3083 77.533L82.304 77.5282L82.2992 77.5234L82.2949 77.5186L82.2902 77.5134L82.2863 77.5086L82.2691 77.4895L82.25 77.4708L82.2314 77.4522L82.2118 77.433L82.1917 77.4144L82.1706 77.3953L82.1496 77.3766L82.1276 77.358L82.1047 77.3389L82.0812 77.3207L82.0578 77.302L82.0329 77.2834L82.0086 77.2648L81.9832 77.2461L81.9574 77.2279L81.9311 77.2093L81.9048 77.1906L81.8776 77.172L81.8503 77.1538L81.8226 77.1357L81.7939 77.1175L81.7657 77.0998L81.737 77.0816L81.7078 77.0635L81.6782 77.0458L81.649 77.0281L81.6189 77.0104L81.5893 76.9922L81.5587 76.9745L81.5285 76.9569L81.4975 76.9396L81.4669 76.922L81.4358 76.9047L81.4052 76.8875L81.3741 76.8703L81.343 76.8526L81.312 76.8359L81.2809 76.8187L81.2498 76.8019L81.2182 76.7852L81.1876 76.769L81.1561 76.7517L81.1255 76.7355L81.0944 76.7188L81.0638 76.703L81.0332 76.6867L81.0026 76.6705L80.9725 76.6542L80.9419 76.6384L80.9123 76.6227L80.8826 76.6069L80.8534 76.5916L80.8238 76.5758L80.7951 76.5605L80.7664 76.5452L80.7377 76.5304L80.7105 76.5146L80.6828 76.4998L80.6555 76.4854L80.6287 76.4706L80.6024 76.4558L80.5761 76.4414L80.5513 76.4271L80.5259 76.4128L80.5135 76.4061L80.5011 76.3989L80.4767 76.385L80.4638 76.3779L80.4518 76.3712L80.4394 76.3645L80.4375 76.363L80.4275 76.3573L80.415 76.3511L80.4031 76.3439L80.394 76.3391L80.3911 76.3372L80.3787 76.331L80.3667 76.3243L80.284 76.2794L80.2725 76.2732L80.2668 76.2703L80.2606 76.2669C80.098 76.1809 79.947 76.1077 79.8045 76.0451C79.3254 75.861 78.8507 75.7429 78.451 75.7563C78.2191 75.7644 77.97 75.786 77.7171 75.8127C77.2179 75.8955 76.6418 76.0102 75.7664 75.9863C75.9328 74.2426 76.123 74.4602 76.8373 73.4628C76.8393 73.3816 76.8407 73.3051 76.8416 73.2324L76.8307 72.4722C76.8144 72.2432 76.7838 72.106 76.7336 72.0056C76.6432 71.8966 76.5586 71.8052 76.4773 71.7173C76.3478 71.5987 76.1766 71.4323 75.9571 71.0919L75.7095 71.0933C74.2675 71.1918 74.3464 71.1847 74.1963 70.8026L74.1356 70.7214L74.1298 70.7147L74.1207 70.7013L74.1126 70.6912L74.1107 70.6884L74.1011 70.6755L74.0916 70.6621L74.0897 70.6597L74.0815 70.6496L74.072 70.6358L74.0662 70.6286L74.0619 70.6229L74.0524 70.6095L74.0423 70.5971L74.0418 70.5961L74.0323 70.5827L74.0218 70.5698L74.0189 70.565L74.0122 70.5559L74.0022 70.5425L73.995 70.533L73.9921 70.5292L73.9821 70.5158L73.972 70.5019L73.9711 70.5005L73.962 70.488L73.9515 70.4747L73.9467 70.468L73.9414 70.4608L73.9309 70.4469L73.9223 70.4355L73.9209 70.4335L73.9099 70.4192L73.8998 70.4053L73.8975 70.4025L73.8893 70.3919L73.8793 70.3776L73.8726 70.3695L73.8683 70.3637L73.8582 70.3499L73.8477 70.336L73.8229 70.3025L73.8157 70.2935L73.8052 70.2791L73.7975 70.2691L73.7947 70.2652L73.7837 70.2514L73.7626 70.2227L73.7516 70.2088L73.7464 70.2012L73.6981 70.1376L73.6952 70.1342L73.6761 70.1094L73.6694 70.0998L73.6651 70.095L73.6326 70.052L73.6221 70.0377L73.6178 70.0324L73.6106 70.0233L73.6001 70.0095L73.5915 69.998L73.5886 69.9951L73.5781 69.9808L73.5666 69.9664L73.5652 69.9645L73.5561 69.9526L73.5446 69.9382L73.5394 69.9311L73.5341 69.9239C73.459 69.9005 73.4103 69.9172 73.2013 69.6413C73.0914 69.4965 73.0655 69.4027 73.0297 69.3109L73.022 69.3014L73.0144 69.2933L73.0058 69.2842L72.9986 69.2756L72.9886 69.2646L72.9828 69.2584L72.9752 69.2497L72.9632 69.2368L72.9594 69.2325L72.9513 69.2239L72.9441 69.2158L72.9379 69.2091L72.936 69.2072L72.9207 69.1905L72.913 69.1823L72.9121 69.1814L72.9054 69.1742L72.8977 69.1661L72.8867 69.1551L72.8824 69.1498L72.8748 69.1417L72.8671 69.134L72.8624 69.1283L72.8595 69.1259L72.8518 69.1183L72.8447 69.1101L72.837 69.1025L72.8289 69.0948L72.8217 69.0867L72.8141 69.0795L72.8121 69.0776L72.8069 69.0719L72.8059 69.0705L72.7916 69.0571L72.7878 69.0528L72.7844 69.0494L72.7768 69.0418L72.7691 69.0346L72.7634 69.0289L72.7619 69.0274L72.7543 69.0207L72.7471 69.0131L72.74 69.0059L72.7251 68.992L72.718 68.9849L72.7151 68.9825L72.7103 68.9787L72.7031 68.9715L72.696 68.9643L72.6912 68.9605L72.6888 68.9581L72.6816 68.9514L72.6745 68.9447L72.6673 68.939L72.6601 68.9318L72.6529 68.9256L72.6443 68.9179L72.6386 68.9132L72.6314 68.9069L72.6247 68.9007L72.6209 68.8979L72.6176 68.8945L72.6037 68.8826L72.598 68.8783L72.5965 68.8768L72.5893 68.8711L72.5826 68.8649L72.5755 68.8596L72.5688 68.8539L72.5621 68.8481L72.5549 68.8429C72.5439 68.8505 72.5167 68.8367 72.4292 68.7453L72.4239 68.741L72.3986 68.7205L72.3919 68.7152L72.3694 68.6971L72.3622 68.6908L72.3422 68.6746L72.3336 68.6674L72.3159 68.6531L72.291 68.632L72.2819 68.6239L72.2685 68.612L72.2465 68.5928L72.236 68.5837L72.226 68.5747L72.215 68.5651L72.2069 68.5574L72.171 68.524L72.1605 68.5135L72.1552 68.5082L72.1404 68.4934L72.1294 68.4824L72.1265 68.4795L72.1026 68.4537L72.1012 68.4518L72.0902 68.4403L72.0897 68.4394L72.0792 68.4269L72.0687 68.4145L72.0591 68.403L72.05 68.3915L72.0338 68.37L72.0319 68.3676L72.0266 68.3595L72.0247 68.3566L72.019 68.349L72.0171 68.3456L72.0123 68.339L72.0099 68.3356L72.0056 68.3289L72.0032 68.3246L71.9994 68.3189L71.9965 68.3146L71.9927 68.3088L71.9898 68.3045L71.9865 68.2993L71.9831 68.294L71.9802 68.2892L71.9764 68.284L71.9735 68.2797L71.9702 68.2734L71.9678 68.2691L71.963 68.2634L71.9606 68.2596L71.9559 68.2524L71.9539 68.2491L71.9492 68.2419L71.941 68.2304L71.9396 68.228L71.9329 68.2194L71.932 68.2175L71.9248 68.2075L71.9238 68.2065L71.9157 68.196L71.9152 68.195L71.9066 68.1836L71.8961 68.1711L71.8932 68.1678L71.8851 68.1578L71.8746 68.1453L71.8731 68.1444L71.8631 68.1324L71.8607 68.13L71.8507 68.1185L71.8478 68.1152L71.8368 68.1042L71.833 68.1004L71.8225 68.0889L71.8177 68.0846L71.8072 68.0731L71.8014 68.0674L71.7904 68.0569L71.7837 68.0502L71.7727 68.0401L71.7651 68.032L71.7541 68.0224L71.7445 68.0134L71.7345 68.0038L71.723 67.9933L71.713 67.9847L71.7001 67.9727L71.691 67.9646L71.6757 67.9512L71.6671 67.9436L71.6503 67.9287L71.6417 67.922L71.6226 67.9058L71.615 67.8991L71.5934 67.8814L71.5872 67.8752L71.5629 67.8556L71.5571 67.8508L71.5303 67.8288L71.5256 67.8255L71.4954 67.8011L71.4926 67.7982L71.4591 67.7719L71.4577 67.7705L71.4209 67.7418L71.4132 67.7356L71.4056 67.7294L71.3979 67.7241L71.3907 67.7179L71.3831 67.7117L71.3754 67.7064L71.3683 67.7007L71.364 67.6969L71.3611 67.6949L71.3534 67.6892L71.3467 67.6839L71.3396 67.6777L71.3324 67.6725L71.3257 67.6672L71.3185 67.6619L71.3118 67.6562L71.3104 67.6548L71.3051 67.6509L71.298 67.6462L71.2918 67.6404L71.2851 67.6352L71.2784 67.6299L71.2717 67.6256L71.2655 67.6199L71.2597 67.6156L71.2588 67.6151L71.253 67.6103L71.2463 67.6055L71.2401 67.6007L71.2334 67.596L71.2277 67.5907L71.2215 67.5864L71.2157 67.5816L71.2129 67.5792L71.21 67.5768L71.2038 67.5721L71.1981 67.5678L71.1923 67.5635L71.1866 67.5592L71.1808 67.5544L71.1751 67.5501L71.1698 67.5458L71.1641 67.5415L71.1584 67.5372L71.1531 67.5329L71.1479 67.5286L71.1426 67.5247L71.1373 67.5209L71.1326 67.5166L71.1283 67.5137L71.1273 67.5123L71.1168 67.5046L71.112 67.5008L71.1072 67.497L71.102 67.4932L71.0972 67.4893L71.0924 67.486L71.091 67.4846L71.0876 67.4817L71.0828 67.4784L71.078 67.4745L71.0737 67.4707L71.0694 67.4674L71.0647 67.464L71.0599 67.4602L71.0556 67.4568L71.0518 67.453L71.047 67.4497L71.0427 67.4468C70.9141 67.3641 70.7979 67.2986 70.718 67.2685C70.7089 66.9414 70.5789 66.3921 70.3915 65.8265L70.3867 65.8145L70.3819 65.8035L70.3767 65.7925L70.3724 65.7811L70.3719 65.7796L70.3676 65.7696L70.3623 65.7581L70.3575 65.7467L70.3528 65.7347L70.3475 65.7232L70.3422 65.7117L70.337 65.6993L70.3322 65.6878L70.3289 65.6792L70.3269 65.6754L70.3212 65.6635L70.3054 65.6271L70.3002 65.6152L70.2949 65.6023L70.2892 65.5903L70.2834 65.5774L70.2825 65.5745L70.2777 65.565L70.2724 65.5525L70.2667 65.5391L70.261 65.5267L70.2552 65.5138L70.2495 65.5009L70.2433 65.488L70.2375 65.4751L70.2332 65.4641L70.2318 65.4612L70.2256 65.4483L70.2194 65.4354L70.2136 65.4215L70.2069 65.4081L70.2007 65.3948L70.195 65.3809L70.1883 65.3675L70.1821 65.3536L70.1797 65.3489L70.1759 65.3398L70.1692 65.3259L70.1625 65.312L70.1563 65.2977L70.1429 65.2695L70.1367 65.2556L70.1295 65.2408L70.1233 65.2279L70.1228 65.2265L70.1161 65.2121L70.1094 65.1973L70.1018 65.183L70.0664 65.1084L70.0635 65.1017L70.0592 65.0935L70.052 65.0778L70.0444 65.063L70.0377 65.0477L70.0152 65.0008L70.0071 64.9855L69.9994 64.9697L69.9913 64.953L69.9832 64.9363L69.9765 64.9224L69.9751 64.9195L69.9669 64.9028L69.9583 64.887L69.954 64.8765L69.9507 64.8708L69.9425 64.855L69.9349 64.8382L69.9311 64.8316L69.9268 64.8225L69.9182 64.8072L69.911 64.7914L69.9086 64.7866L69.9029 64.7761L69.8952 64.7603L69.8871 64.7445L69.8866 64.7436L69.8794 64.7297L69.8718 64.7144L69.8646 64.7005L69.8641 64.6991L69.8565 64.6843L69.8488 64.6695L69.8431 64.659L69.8412 64.6551L69.8335 64.6398L69.8264 64.6255L69.8221 64.6173L69.8187 64.6107L69.8115 64.5968L69.8039 64.582L69.801 64.5767L69.7972 64.5676L69.7895 64.5538L69.7824 64.5394L69.7809 64.5366L69.7752 64.5251L69.768 64.5112L69.7609 64.4974L69.7542 64.4835L69.747 64.4696L69.7413 64.4581L69.7403 64.4557L69.7336 64.4419L69.7269 64.4285L69.7221 64.4199L69.7197 64.4151L69.7135 64.4012L69.7068 64.3879L69.704 64.3812L69.7001 64.3745L69.6939 64.3606L69.6877 64.3477L69.6858 64.3434L69.6815 64.3343L69.6753 64.3209L69.6691 64.308L69.6681 64.3061L69.6628 64.2946L69.6571 64.2812L69.6514 64.2693L69.6452 64.2554L69.6394 64.242L69.6351 64.233L69.6337 64.2296L69.6279 64.2167L69.6227 64.2033L69.6174 64.1904L69.6117 64.178L69.6064 64.1646L69.604 64.1598L69.6012 64.1517L69.5964 64.1392L69.5911 64.1259L69.5902 64.1235L69.5859 64.1134L69.5811 64.101L69.5768 64.0876L69.572 64.0752L69.5672 64.0618C69.5122 63.9915 69.4587 63.9332 69.4066 63.8906C69.4267 63.7491 69.4487 63.6172 69.4711 63.4919V63.4885L69.4716 63.4818L69.4721 63.4713L69.4726 63.4608L69.473 63.4503L69.474 63.4398L69.4745 63.4293L69.4749 63.4187L69.4759 63.4082V63.4063L69.4769 63.3977L69.4783 63.3867L69.4793 63.3762L69.4797 63.3647L69.4812 63.3542L69.4826 63.3437L69.484 63.3327L69.4864 63.3126L69.4869 63.3107L69.4883 63.2997L69.4902 63.2882L69.4917 63.2777L69.4941 63.2657L69.496 63.2543L69.4979 63.2433L69.4998 63.2332V63.2318L69.5017 63.2203L69.5041 63.2088L69.5065 63.1974L69.5094 63.1854L69.5118 63.1739L69.5146 63.162L69.517 63.15L69.5218 63.1285L69.5223 63.1261L69.5252 63.1147L69.5285 63.1022L69.5304 63.0941L69.5314 63.0903L69.5347 63.0779L69.5381 63.0654L69.5414 63.0535L69.5448 63.041L69.5481 63.0286L69.5519 63.0162L69.5557 63.0037L69.5581 62.9966L69.5596 62.9908L69.5634 62.9779L69.5672 62.9655L69.5715 62.9521L69.5758 62.9392L69.5797 62.9263L69.584 62.9129L69.5887 62.9005L69.593 62.8866L69.5978 62.8732L69.6021 62.8603L69.6074 62.8464L69.6088 62.8421L69.6122 62.8331L69.6174 62.8197L69.6222 62.8058L69.6275 62.7919L69.6327 62.7781L69.6385 62.7642L69.6432 62.7499L69.649 62.736L69.6499 62.7331L69.6547 62.7221C69.7996 62.255 69.9717 61.9658 70.1539 61.7717L70.1567 61.7683L70.1601 61.7631L70.1673 61.754L70.1716 61.7482L70.1735 61.7454C70.1864 61.7286 70.1988 61.7124 70.2117 61.698L70.2151 61.6942L70.2175 61.6909L70.2289 61.6779L70.2299 61.6765L70.2366 61.6703L70.2418 61.6631L70.2485 61.6569L70.2567 61.6488L70.26 61.645L70.2662 61.6387L70.2701 61.6354L70.2724 61.6325L70.2963 61.611L70.3021 61.6062L70.3078 61.601L70.3102 61.5991L70.314 61.5962L70.3198 61.5914L70.3236 61.5885L70.3255 61.5871L70.3317 61.5823L70.337 61.5785L70.3432 61.5737L70.3494 61.5699L70.3508 61.5689L70.3556 61.5656L70.3609 61.5618L70.3642 61.5599L70.3671 61.5579L70.3733 61.5536L70.3776 61.5512L70.3791 61.5508L70.3853 61.5469L70.391 61.5431L70.3967 61.5398L70.403 61.5364L70.4049 61.5355L70.4092 61.5331L70.4159 61.5302L70.4187 61.5283L70.4216 61.5269L70.4278 61.5235L70.4331 61.5211L70.434 61.5206L70.4402 61.5173L70.4465 61.5144L70.4474 61.514L70.4532 61.5116L70.4589 61.5087L70.4618 61.5077L70.4656 61.5063L70.4723 61.5034L70.4761 61.501L70.4785 61.5006L70.4852 61.4977L70.4914 61.4948L70.4986 61.492L70.5053 61.4896L70.5067 61.4891L70.5124 61.4872L70.5187 61.4843L70.522 61.4829L70.5258 61.4814L70.533 61.479L70.5378 61.4767L70.5397 61.4762L70.5469 61.4733L70.5545 61.4714C70.7329 61.3748 70.9112 61.3093 71.0771 61.2041L71.1216 58.0596L71.123 57.8139L71.5695 57.6183L71.8588 57.4701C71.8923 56.294 71.6996 56.0257 72.4799 55.9851H72.4851L72.4875 55.9846C72.9264 55.9626 73.6689 56.0109 74.924 56.0104C76.4802 56.0104 77.6152 55.9091 79.0529 56.0936L79.0926 56.0927H79.0993L79.1303 56.0917H79.1323L79.137 56.0912L79.1428 56.0908L79.1552 56.0898L79.1614 56.0893L79.1672 56.0889H79.17H79.1734L79.1796 56.0879L79.1849 56.0874L79.1911 56.0865L79.1968 56.086L79.2025 56.0855L79.2068 56.085L79.2083 56.0845L79.214 56.0841L79.2198 56.0831L79.225 56.0822L79.2312 56.0817L79.237 56.0807L79.2418 56.0803L79.2475 56.0788L79.2532 56.0779L79.259 56.0769L79.2637 56.076L79.2695 56.075L79.2752 56.074H79.2766L79.2805 56.0731L79.2853 56.0726L79.291 56.0716L79.2963 56.0702L79.301 56.0693L79.3063 56.0678L79.3092 56.0673L79.3116 56.0669L79.3168 56.0654L79.3216 56.0645L79.3269 56.063L79.3321 56.0616L79.3374 56.0602L79.3412 56.0597L79.3469 56.0578L79.3517 56.0564L79.357 56.0549L79.3613 56.0535L79.3665 56.0525L79.3761 56.0497L79.3809 56.0482L79.3852 56.0468L79.39 56.0449L79.3952 56.0434L79.3995 56.042L79.401 56.0415L79.4038 56.0401L79.4086 56.0382C79.8336 55.7069 80.1607 55.2431 80.766 55.1188L78.1555 49.097C74.9259 49.0487 76.7044 49.6487 73.0655 49.1788C71.7311 49.0066 69.4606 48.5386 68.2204 48.6256L68.1243 49.8868C66.8004 50.8201 67.072 50.5012 63.654 49.1687C60.8996 48.0949 61.5594 48.0538 60.0251 46.2633C59.3878 45.5193 58.4636 45.7966 57.3219 45.8177C56.4484 45.8344 55.0452 45.7115 54.2697 45.9329C53.5812 46.1303 52.8325 46.8183 52.1081 46.9699C51.0831 47.1841 49.8405 46.9264 48.9211 47.1291C48.9029 47.165 48.8871 47.1989 48.8713 47.2324L48.3091 48.4085C48.2967 48.4147 48.245 48.4449 48.17 48.4979ZM44.8777 70.0372L44.9112 70.0683C44.8992 70.0577 44.8887 70.0477 44.8777 70.0372ZM22.7738 55.934C22.7365 53.8723 22.7159 49.6674 21.7832 48.1451L20.782 50.8301C20.1471 53.3244 19.8196 58.4378 22.1336 59.6527L21.7067 67.4501C20.8303 65.5793 20.2647 61.261 18.1725 60.115C18.0377 63.4293 18.3991 66.8496 20.1308 69.5753C21.0431 71.0106 20.9556 70.4699 22.1943 71.3424C22.3956 72.7294 22.5529 73.9486 22.8068 75.2873C23.0129 76.3726 23.5067 77.9413 23.5718 78.9204C22.6017 76.899 20.073 73.2113 18.1997 72.5673C18.5645 75.9237 21.0239 81.923 24.7412 82.4221C25.9394 85.4987 27.2087 87.7262 27.9278 89.5301C26.5791 88.1044 23.7248 84.9996 20.9995 84.5793C21.633 87.0306 25.554 92.8425 29.6619 92.3859C30.2897 93.0481 31.1072 94.3476 31.6824 95.0968C32.3761 95.9999 33.328 96.904 33.907 97.81C31.1923 96.915 30.0205 95.2163 26.2932 95.4128C27.2379 97.4773 30.7974 99.9739 33.1798 100.67C35.2649 101.279 35.3763 100.696 36.8703 100.477C37.7706 101.2 38.6346 101.861 39.6544 102.559C40.6431 103.235 41.6543 103.793 42.6751 104.468C40.2649 104.362 36.2502 102.941 34.1987 104.502C35.4102 105.846 39.7973 107.435 42.2347 107.435C44.3006 107.434 44.6272 107.057 45.755 106.061C47.1784 106.354 51.3398 108.392 52.7024 108.256C50.3936 108.593 45.5002 108.755 44.1304 110.877C45.3917 111.614 49.2878 111.887 50.9497 111.69C52.0388 111.559 53.0624 111.284 53.9431 110.86C55.3669 110.176 55.1547 109.938 55.9808 108.915C58.205 109.076 64.09 110.333 65.6018 111.381L59.9204 115.178C59.2329 115.74 59.6068 115.42 59.7584 115.915L60.3727 115.635C61.6746 114.665 65.2905 111.939 66.5504 111.876C67.2082 111.843 69.7656 113.465 70.3097 113.821C70.9341 114.231 71.3797 114.561 71.9869 114.995C72.4483 115.326 73.1659 116.059 73.6015 115.911C73.831 115.333 73.0957 115.055 72.5133 114.632L69.288 112.49C68.9294 112.282 68.774 112.215 68.4169 112.024L67.5539 111.381C69.2225 110.408 74.9727 109.068 77.2681 108.91C78.176 110.651 79.7395 111.352 82.2471 111.668C83.9138 111.879 87.7449 111.637 89.1018 110.877C87.7573 108.836 82.8314 108.527 80.5303 108.274C82.1429 108.172 85.8138 106.623 87.3285 106.051C88.1666 106.512 88.2029 107.133 89.8534 107.372C92.7043 107.786 97.1436 106.348 99.0211 104.502C97.1268 103.044 92.6991 104.314 90.5385 104.479C91.3981 103.852 92.5485 103.246 93.4884 102.62C94.4924 101.951 95.4257 101.073 96.3805 100.458C97.7967 100.781 97.7823 101.239 99.6818 100.755C101.742 100.228 103.364 99.0765 104.856 97.7187C105.569 97.0704 106.563 96.4087 106.861 95.3941C105.337 95.3693 103.939 95.7059 102.666 96.1931C101.483 96.6454 100.334 97.4514 99.3362 97.7871C99.7053 97.069 100.879 95.9588 101.474 95.1666C101.993 94.4752 103.086 93.1666 103.389 92.3878C106.349 92.59 107.514 91.1959 108.964 89.7477C109.84 88.8723 111.802 86.1265 112.154 84.6176C109.928 84.9862 108.264 86.5534 106.813 87.9314C106.365 88.3573 105.816 89.0482 105.324 89.4006C105.769 88.3253 106.47 87.1736 106.965 86.0701C108.042 83.6709 107.781 82.7467 109.203 82.2763C110.928 81.7069 111.96 80.2658 112.842 78.6924C113.571 77.3915 115.009 74.2159 114.958 72.5143C113.871 73.1277 112.776 74.2058 112.004 75.174C111.266 76.0967 110.383 77.9437 109.659 78.6728C109.767 77.6013 110.209 76.2717 110.423 75.1037C110.659 73.8071 110.792 72.6051 111.045 71.2817C112.182 70.6171 112.185 70.8337 112.887 69.8469C114.837 67.103 115.153 63.4082 115.01 60.0332C114.12 60.7193 113.302 62.3071 112.787 63.5359C112.478 64.2712 111.418 67.2393 111.409 67.8288C111.287 66.6436 111.375 65.1313 111.354 63.8997C111.33 62.451 111.168 61.2692 111.055 59.8726C111.665 58.9312 111.933 59.1511 112.405 57.7823C113.356 55.0212 112.874 50.441 111.468 48.1422L110.564 51.8978C110.412 53.3938 110.556 55.0079 110.381 56.4503C110.188 55.092 109.375 53.5248 109.203 52.2779C108.917 50.1962 108.878 49.6334 108.006 47.8974C106.99 45.8765 104.507 42.9705 102.344 42.3973C102.932 44.0487 107.37 50.6867 108.603 52.1698C109.169 52.853 109.855 55.0571 109.934 56.1711C108.835 54.4499 107.35 52.1277 104.605 52.0096C105.162 53.7064 107.94 58.0869 109.569 59.2592C110.118 59.6536 110.378 59.536 110.686 60.0385C111.111 61.437 111.185 66.0718 110.852 67.6533C111.305 65.9235 108.703 61.6689 106.932 61.185C107.207 64.4051 108.529 69.4917 110.586 71.1139C110.671 72.5884 109.72 77.4608 109.133 78.4863C109.025 76.4209 108.703 72.1194 106.553 71.2478C106.204 73.6235 106.338 79.4196 107.36 81.2689C108.191 82.7707 108.197 82.2261 106.898 85.1588C106.266 86.585 105.711 87.6187 105.008 88.8531C105.26 86.5659 105.86 82.5727 103.914 81.0342C103.2 83.0341 102.496 86.8743 102.495 89.2342C102.494 92.3706 103.984 91.0591 102.011 93.6945C101.35 94.5756 99.93 96.5799 99.0354 97.0412C99.5408 94.9964 100.423 93.6897 100.045 91.2595C99.9544 90.6786 99.8296 90.1354 99.4753 89.6683C99.4614 89.6497 99.4256 89.6095 99.3978 89.5827C98.5884 90.7125 97.7125 92.864 97.1507 94.1965C96.294 96.2246 95.8087 97.5824 96.129 100.08C95.5357 100.335 94.2324 101.488 93.5214 101.975C92.744 102.509 91.5679 103.363 90.6183 103.672C90.9674 103.018 91.3197 102.788 91.7338 102.194C92.9281 100.48 93.5879 98.4373 93.2733 96.1868C92.5776 96.3245 90.068 99.5346 89.6334 100.098C88.4936 101.572 87.3084 103.096 87.1913 105.542C85.2889 106.141 83.189 107.333 80.9271 107.519C81.9249 106.556 82.9299 106.119 83.8689 104.893C84.6788 103.836 85.3639 102.459 85.3883 100.743C83.3391 101.444 80.1057 104.152 78.6121 105.677C77.6305 106.68 77.7649 107.092 77.1295 108.24C76.3578 108.577 72.8901 109.046 71.7235 109.347C70.774 109.592 66.9161 110.984 66.6809 111.002C66.4088 111.021 62.5696 109.635 61.6517 109.391C59.7827 108.893 58.0075 108.647 56.0282 108.303C55.1881 106.161 54.459 105.318 52.5939 103.864C51.4546 102.976 49.1439 101.279 47.8143 100.693C47.744 102.341 48.5563 103.816 49.2959 104.817C49.7372 105.414 50.1211 105.813 50.6757 106.292C51.2126 106.755 51.8275 107.111 52.3051 107.529C50.353 107.353 47.6684 106.164 45.9664 105.483C45.9511 103.161 44.6822 101.561 43.583 100.135C42.9839 99.3577 40.645 96.4498 39.9345 96.1204C39.4278 100.318 41.126 101.023 42.6163 103.688C41.0935 103.258 38.1952 100.807 37.0573 99.9945C37.5584 97.134 35.6693 92.6962 34.1518 90.1206L33.657 89.5158C33.221 90.8081 32.9044 91.8872 33.1119 93.5376C33.308 95.0905 33.842 95.8483 34.2283 97.1584C33.5948 96.8304 30.2146 92.8167 30.0999 92.0861C30.0673 91.8791 31.4252 90.155 29.954 83.5791C29.7929 82.8586 29.671 81.6036 29.1369 80.993C27.4793 84.2514 27.7222 84.7381 28.132 88.7327C27.6424 88.1078 25.4321 83.5552 25.2485 82.5799C25.1763 82.1974 26.1822 80.6995 26.4342 79.4382C26.9635 76.791 26.7526 73.8511 26.6589 71.145C24.2119 73.1702 24.4596 75.2792 24.0389 78.9286C23.9552 77.6372 22.1532 72.0582 22.6222 71.1139C23.9882 69.9005 24.4381 68.6975 25.0515 66.6613C25.4526 65.3312 26.2367 62.4644 26.2559 61.1052C24.2115 62.0929 22.2708 65.4124 22.2178 67.6873C22.026 65.3828 22.1064 61.9729 22.5362 59.7837C24.757 59.144 27.77 54.1492 28.6101 52.0178C27.2001 52.0464 26.1483 52.787 25.391 53.4153C24.2263 54.3806 24.1603 55.1212 23.2921 56.0191C23.6392 52.789 25.2528 51.6085 26.8597 49.0052C27.7557 47.5537 30.4627 43.7135 30.8629 42.3705C27.4473 43.3325 24.3702 48.1967 24.0441 51.6774C23.9456 52.7292 23.7965 53.0204 23.5201 53.8896C23.3117 54.5455 23.2237 55.3731 22.7738 55.934ZM132.463 71.1139C130.913 89.1893 123.537 104.12 110.971 115.581C108.21 118.099 105.068 120.371 101.599 122.645C98.4268 124.725 94.4289 126.651 90.5495 128.207C82.4776 131.443 72.1892 133.279 62.1862 132.533C43.9889 131.176 29.4836 123.576 17.6662 110.971C6.19778 98.738 -0.707534 80.0187 0.733484 61.949C1.52858 51.9881 3.94207 44.0176 7.9161 36.255C10.6815 30.8538 15.7752 23.7099 20.1036 19.6049C22.6748 17.1661 23.9456 16.1281 26.7679 13.8599C31.0451 10.4223 37.4455 7.07367 42.6884 4.97047C65.0917 -4.01366 90.9296 0.737779 109.151 16.0511C110.594 17.2636 114.397 20.8303 115.577 22.2024C120.562 28.0043 124.77 34.027 128.165 42.6679C131.392 50.8827 133.322 61.099 132.463 71.1139ZM0.198961 70.7783C1.83409 89.3609 8.78865 103.633 21.7683 115.761C32.0644 125.381 50.3702 134.692 70.8304 133.059C84.5272 131.965 96.9619 127.348 107.097 119.423C108.94 117.983 112.202 115.209 113.795 113.542C116.141 111.084 117.363 109.779 119.562 106.895C133.77 88.2708 136.941 64.3381 128.4 41.9263C127.615 39.8681 126.73 38.0159 125.84 36.2641C122.697 30.0774 118.371 24.1823 113.537 19.3807C111.422 17.2789 109.314 15.4736 106.903 13.6013C94.7167 4.14191 78.4844 -0.878692 62.518 0.12677C42.1836 1.40714 26.5709 11.5373 17.4902 21.687C12.5327 27.2274 8.05667 33.6082 4.72043 42.1267C1.49703 50.3578 -0.688886 60.6911 0.198961 70.7783ZM14.1162 69.7718C13.5683 61.6536 15.0978 53.9259 17.7025 47.2214C19.767 41.9077 22.7332 37.0506 26.2654 32.8131C28.0617 30.6578 29.0456 29.7805 31.0938 27.7552C33.9883 24.8952 39.2442 21.4929 42.785 19.6613C55.8183 12.9185 72.063 12.112 85.8234 17.5892C119.856 31.1354 130.294 74.2302 105.474 102.026C98.2408 110.125 85.8788 118.093 69.8976 119.101C54.6899 120.06 41.6242 114.68 31.0819 105.428C26.6355 101.525 22.5108 95.7279 19.7388 90.4472C16.621 84.5062 14.635 77.4579 14.1162 69.7718ZM62.0662 13.6845C54.3543 14.4122 47.3672 16.5646 41.5477 19.7564C22.8302 30.0205 12.2363 49.1281 13.7237 71.1139C14.5427 83.2134 20.1485 94.6803 28.0841 103.06C31.5289 106.697 34.7652 109.342 39.0902 112.019C48.388 117.775 59.6929 120.39 71.2487 119.497C98.5415 117.39 122.267 92.4939 119.467 62.125C118.111 47.4227 111.789 35.9352 101.747 26.8167C93.0772 18.9432 78.5949 12.1258 62.0662 13.6845ZM43.7704 40.2219L46.9317 40.2783L46.9431 24.6748L43.7986 24.6666L43.7704 40.2219ZM83.6848 27.3938C87.754 27.3 89.5101 28.3289 89.4608 32.5272C89.4164 36.3645 87.5752 37.7185 83.6274 37.4967L83.6848 27.3938ZM80.4757 40.2267C87.3165 40.9553 92.7459 39.4803 92.7354 32.5196C92.7249 25.2155 87.491 24.0733 80.5102 24.6958L80.4757 40.2267ZM71.2344 27.3216L73.067 33.755L69.3516 33.7158L71.2344 27.3216ZM64.0828 40.1846L67.3794 40.2778L68.5278 36.5816L73.8903 36.5663L74.9364 40.2338L78.2913 40.2726L73.1253 24.6547L69.2407 24.6073L64.0828 40.1846ZM62.0002 39.5716L62.0686 31.5155L56.2404 31.4997L56.2117 34.2546L58.9284 34.2733L58.9838 37.5086C57.015 37.8218 55.2952 37.8041 54.3065 36.5529C52.4806 34.2422 52.307 26.6097 58.5038 27.2871C59.6192 27.4095 60.192 27.8542 61.01 27.9617L62.0275 25.4928C59.7206 23.7706 49.9409 23.0707 49.9633 32.358C49.972 35.7999 50.9774 38.2679 53.117 39.5884C55.1178 40.8243 59.8152 40.7062 62.0002 39.5716ZM6.90587 63.9241L7.89603 66.9921L11.1194 66.9859L8.50801 68.8759L9.51012 71.9396L6.90587 70.0396L4.30112 71.9396L5.30324 68.8759L2.69181 66.9859L5.91522 66.9921L6.90587 63.9241ZM4.84043 57.2507L9.38963 57.8971L9.24907 58.8863L4.69987 58.2403L4.84043 57.2507ZM5.04124 56.1902L5.21527 55.2952L7.89412 54.2032C8.07675 54.13 8.25413 54.0641 8.42625 54.0057C8.59884 53.9474 8.73128 53.9077 8.82451 53.8862L8.82738 53.8719C8.51183 53.8408 8.2001 53.7949 7.8922 53.7346C7.5843 53.6754 7.27305 53.6146 6.9575 53.5535L5.60445 53.2905L5.78135 52.3811L10.2918 53.2575L10.1178 54.1525L7.64597 55.1733C7.5384 55.2163 7.42748 55.2579 7.31321 55.2976C7.19942 55.3373 7.08946 55.3746 6.98379 55.4085C6.87813 55.442 6.78156 55.4721 6.6955 55.497C6.60848 55.5223 6.53724 55.5395 6.48082 55.5481L6.47843 55.5629C6.81215 55.6026 7.13105 55.6514 7.43465 55.7078C7.73777 55.7642 8.0471 55.823 8.36218 55.8842L9.72957 56.1501L9.55123 57.0666L5.04124 56.1902ZM7.06698 48.1403L7.82192 48.3655L7.45043 49.6095L11.0979 50.6991L10.812 51.6568L7.16404 50.5672L6.80068 51.783L6.04622 51.5574L7.06698 48.1403ZM7.27544 47.5465L8.27277 44.7271L9.00141 44.9853L8.33732 46.8623L9.32796 47.2123L9.92846 45.5141L10.6504 45.7694L10.0494 47.4676L11.2112 47.8788L11.883 45.9812L12.6116 46.2389L11.6071 49.0788L7.27544 47.5465ZM8.6194 43.954L9.28302 42.3423C9.38103 42.1042 9.50247 41.9086 9.64734 41.7552C9.7922 41.6017 9.94902 41.4889 10.1178 41.4162C10.287 41.344 10.4639 41.3105 10.6485 41.3158C10.833 41.3206 11.0176 41.3612 11.2021 41.4372C11.3728 41.5075 11.5139 41.596 11.6253 41.7021C11.7367 41.8087 11.8246 41.9206 11.8887 42.0392C11.9528 42.1582 11.9977 42.2787 12.0231 42.4025C12.0484 42.5259 12.0627 42.6406 12.0661 42.7477L14.22 42.4202L13.7844 43.4792L11.8839 43.6504L11.6807 44.1424L13.2451 44.7873L12.8674 45.7043L8.6194 43.954ZM10.9727 43.8512L11.1223 43.4869C11.2227 43.244 11.2552 43.0245 11.2203 42.829C11.1849 42.633 11.053 42.4876 10.8235 42.3934C10.6217 42.3102 10.4396 42.3074 10.2789 42.3858C10.1178 42.4642 9.98823 42.6225 9.88974 42.8606L9.69802 43.3258L10.9727 43.8512ZM11.3762 37.9069C11.5105 37.6535 11.652 37.4393 11.7998 37.2648C11.9475 37.0898 12.1 36.9425 12.2573 36.822L12.7574 37.3269C12.6049 37.4388 12.4691 37.565 12.3506 37.7056C12.2315 37.8462 12.1311 37.9939 12.0489 38.1483C11.9556 38.3243 11.8954 38.5055 11.8682 38.6919C11.8404 38.8789 11.8562 39.0615 11.9145 39.2413C11.9738 39.421 12.078 39.5951 12.2282 39.7629C12.3788 39.9307 12.5848 40.0842 12.8468 40.2233C13.3149 40.4719 13.7299 40.5585 14.0918 40.4839C14.4538 40.4088 14.7368 40.1779 14.9419 39.7916C15.0605 39.5683 15.1279 39.3895 15.1446 39.2547L14.1975 38.7522L13.8418 39.422L13.1849 39.073L13.9886 37.5593L16.0435 38.6508C16.0272 38.8564 15.9837 39.084 15.9125 39.3321C15.8412 39.5807 15.7294 39.8485 15.5764 40.1363C15.4167 40.437 15.223 40.6933 14.995 40.9056C14.7669 41.1174 14.513 41.2713 14.2329 41.3679C13.9537 41.4645 13.6548 41.4984 13.3369 41.4702C13.019 41.4415 12.6905 41.3373 12.351 41.1575C12.0116 40.9773 11.7391 40.7626 11.533 40.5126C11.3269 40.263 11.1859 39.9967 11.1103 39.7146C11.0348 39.432 11.0195 39.1366 11.0649 38.8277C11.1108 38.5189 11.2141 38.2119 11.3762 37.9069ZM13.7887 33.8009C13.969 33.5293 14.1798 33.3075 14.4222 33.1358C14.6646 32.9637 14.9247 32.8504 15.203 32.7959C15.4812 32.7409 15.7752 32.7476 16.086 32.8165C16.3963 32.8848 16.7095 33.024 17.026 33.2334C17.3339 33.4375 17.5772 33.6689 17.7561 33.9271C17.9344 34.1853 18.053 34.4564 18.1103 34.7389C18.1677 35.022 18.1648 35.3103 18.1017 35.6038C18.0386 35.8974 17.9172 36.1799 17.7369 36.4515C17.5572 36.7231 17.3468 36.9459 17.1068 37.1185C16.8668 37.2925 16.6072 37.4063 16.3294 37.4608C16.0506 37.5158 15.7576 37.5096 15.4492 37.4422C15.1408 37.3752 14.8286 37.2366 14.5126 37.0276C14.2042 36.823 13.9599 36.5911 13.7791 36.3315C13.5984 36.0719 13.4779 35.7999 13.4187 35.5154C13.3594 35.2309 13.3613 34.9421 13.4244 34.6486C13.4875 34.355 13.6089 34.0724 13.7887 33.8009ZM15.0963 36.1455C15.3234 36.2961 15.5391 36.3999 15.7432 36.4563C15.9478 36.5127 16.1372 36.5318 16.3103 36.5122C16.4833 36.4931 16.6382 36.4396 16.775 36.3521C16.9112 36.2651 17.0269 36.1503 17.1206 36.0083C17.2124 35.8706 17.2713 35.7219 17.2985 35.5618C17.3258 35.4021 17.3133 35.2405 17.2607 35.0774C17.2081 34.9144 17.1154 34.7509 16.982 34.5869C16.8486 34.4224 16.6688 34.2656 16.4417 34.115C16.2065 33.9591 15.9861 33.852 15.7791 33.7942C15.573 33.7363 15.3832 33.7167 15.2096 33.7363C15.0366 33.7555 14.8826 33.81 14.7478 33.8984C14.6134 33.9869 14.4992 34.1021 14.405 34.2441C14.3113 34.3861 14.252 34.5367 14.2286 34.6959C14.2047 34.8551 14.219 35.0162 14.2711 35.1793C14.3237 35.3423 14.4174 35.5063 14.5527 35.6722C14.688 35.8371 14.8692 35.9954 15.0963 36.1455ZM15.8833 30.8844L18.2313 31.6523C18.3083 31.679 18.401 31.7106 18.5096 31.7479C18.6181 31.7847 18.7295 31.8239 18.8433 31.8655C18.958 31.9066 19.0713 31.9492 19.1842 31.9927C19.2975 32.0357 19.3964 32.0773 19.4825 32.116L19.4954 32.0979C19.3692 31.9578 19.2315 31.7861 19.0814 31.5829C18.9317 31.3802 18.7974 31.1957 18.6774 31.0302L17.244 29.0241L17.8507 28.1941L20.5912 32.2308L19.9496 33.1081L15.2594 31.7383L15.8833 30.8844ZM18.3996 27.5764L20.3928 25.347L20.9689 25.8624L19.6422 27.3464L20.4249 28.0469L21.6254 26.7038L22.1967 27.214L20.9957 28.557L21.9146 29.3784L23.2562 27.8776L23.8328 28.393L21.8252 30.6387L18.3996 27.5764ZM20.9489 24.7345L22.1704 23.491C22.3507 23.3069 22.5367 23.1716 22.7289 23.0836C22.9206 22.9956 23.108 22.9502 23.2921 22.9469C23.4761 22.9435 23.6526 22.9789 23.8213 23.053C23.9906 23.1271 24.1465 23.2337 24.2889 23.3733C24.4204 23.5029 24.5179 23.6382 24.5815 23.7783C24.6446 23.9189 24.6838 24.0556 24.6987 24.1895C24.7135 24.3238 24.7097 24.4524 24.6867 24.5767C24.6638 24.7006 24.6336 24.8129 24.5968 24.9128L26.7163 25.4192L25.9135 26.2363L24.0881 25.6807L23.7152 26.0608L24.9229 27.246L24.2277 27.9536L20.9489 24.7345ZM23.1687 25.5239L23.4446 25.2432C23.6287 25.0558 23.741 24.8646 23.7821 24.67C23.8232 24.4754 23.7558 24.2913 23.5789 24.1173C23.4226 23.9643 23.2553 23.8935 23.0764 23.9055C22.8981 23.9174 22.7183 24.0154 22.5376 24.199L22.1852 24.5581L23.1687 25.5239ZM24.0609 21.5742L24.7584 20.9871L27.5286 21.82C27.717 21.8773 27.8963 21.9381 28.0669 22.0007C28.2376 22.0638 28.3658 22.1164 28.4523 22.158L28.4633 22.1484C28.2371 21.9256 28.0234 21.6942 27.8217 21.4542C27.6194 21.2142 27.4153 20.9718 27.2083 20.7261L26.3209 19.6718L27.029 19.0751L29.9885 22.5902L29.2909 23.1773L26.7268 22.419C26.6159 22.3851 26.503 22.3478 26.3897 22.3067C26.2755 22.2665 26.1669 22.2259 26.0632 22.1862C25.9599 22.146 25.8662 22.1087 25.783 22.0738C25.6998 22.0389 25.6334 22.0074 25.5841 21.9792L25.5731 21.9883C25.8079 22.2292 26.0254 22.4673 26.2262 22.7021C26.427 22.9364 26.6302 23.1764 26.8372 23.4221L27.7346 24.4878L27.0204 25.0888L24.0609 21.5742ZM28.2065 18.0243L29.2455 17.3081L30.9738 18.6587C31.0508 18.718 31.1316 18.7825 31.2186 18.8528C31.3056 18.9231 31.3907 18.9939 31.4759 19.0656C31.561 19.1368 31.6422 19.2081 31.7202 19.2779C31.7981 19.3481 31.8684 19.4156 31.9296 19.4791L31.9535 19.4624C31.9215 19.3902 31.8861 19.3042 31.8464 19.2042C31.8072 19.1043 31.768 19.0001 31.7283 18.8916C31.6891 18.7825 31.6504 18.6764 31.614 18.5717C31.5772 18.467 31.5442 18.3718 31.5141 18.2858L30.8486 16.2027L31.887 15.4865L34.7777 19.0742L34.0031 19.6082C33.6924 19.2085 33.3811 18.8088 33.0699 18.4091C32.7591 18.0094 32.4526 17.6002 32.1524 17.1814L31.8072 16.6932L31.789 16.7056C31.8885 16.9614 31.9903 17.2311 32.094 17.5141C32.1978 17.7972 32.2834 18.0477 32.3513 18.2667L32.9766 20.3163L32.3403 20.7552L30.6306 19.4447C30.4135 19.276 30.1921 19.0914 29.9665 18.893C29.7403 18.6941 29.5476 18.5172 29.3875 18.3618L29.3693 18.3742C29.4688 18.5186 29.5711 18.6707 29.6758 18.8318C29.781 18.9924 29.8842 19.1531 29.9861 19.3132C30.0874 19.4734 30.1869 19.6307 30.2849 19.7851C30.3819 19.9396 30.4699 20.0811 30.5474 20.2111L31.3076 21.4676L30.545 21.993L28.2065 18.0243ZM33.0354 14.7444L35.5761 13.1681L35.9839 13.825L34.2924 14.875L34.8456 15.7671L36.3765 14.8171L36.7805 15.4678L35.2496 16.4178L35.8993 17.4654L37.6095 16.404L38.0173 17.0609L35.458 18.6487L33.0354 14.7444ZM36.4979 12.6336L37.3155 12.231L39.805 13.7046C39.9738 13.8054 40.1339 13.9073 40.284 14.0091C40.4347 14.1109 40.5465 14.1927 40.6202 14.2544L40.6335 14.2477C40.4676 13.9771 40.3151 13.7012 40.1765 13.4196C40.0383 13.1385 39.8982 12.854 39.7567 12.5657L39.1476 11.3293L39.9785 10.9201L42.0081 15.0423L41.1905 15.4449L38.8822 14.0937C38.7828 14.034 38.6829 13.9709 38.582 13.9039C38.4816 13.8375 38.3855 13.7715 38.2946 13.7084C38.2038 13.6448 38.122 13.586 38.0494 13.532C37.9772 13.4784 37.9203 13.4316 37.8792 13.3923L37.8658 13.399C38.0365 13.6893 38.1904 13.9723 38.3291 14.2482C38.4672 14.524 38.6078 14.8061 38.7493 15.0939L39.3646 16.3437L38.527 16.7563L36.4979 12.6336ZM43.8125 9.23473L44.1271 9.95667L42.9371 10.4754L44.4584 13.9656L43.5424 14.3643L42.021 10.8746L40.8578 11.3814L40.5432 10.66L43.8125 9.23473ZM46.1681 11.3876L47.2601 10.976L46.8461 10.4773C46.7156 10.3239 46.5889 10.1675 46.4669 10.0083C46.3445 9.8491 46.2241 9.68797 46.1055 9.52493L46.0921 9.5302C46.1069 9.72192 46.1184 9.9189 46.1275 10.1207C46.1356 10.3229 46.1433 10.529 46.15 10.7398L46.1681 11.3876ZM45.2626 8.73557L46.2317 8.37078L49.4417 12.0713L48.452 12.4443L47.7449 11.5808L46.2159 12.1564L46.2542 13.2723L45.2784 13.64L45.2626 8.73557ZM48.6787 7.59051L49.6435 7.33185L50.6289 11.009L52.418 10.5299L52.6221 11.2901L49.8677 12.0283L48.6787 7.59051ZM55.7026 8.79725L56.8538 8.60744L56.5455 8.03706C56.4475 7.86111 56.3537 7.68325 56.2653 7.50301C56.1764 7.32324 56.0898 7.14157 56.0057 6.95798L55.9913 6.96083C55.9684 7.1516 55.9411 7.34715 55.9105 7.547C55.879 7.74637 55.8465 7.95052 55.8116 8.1585L55.7026 8.79725ZM55.3335 6.01992L56.3547 5.85115L58.7792 10.1082L57.736 10.2803L57.211 9.29497L55.5993 9.5608L55.4186 10.6624L54.3897 10.8321L55.3335 6.01992ZM58.6697 5.51025L59.6627 5.39934L59.9678 8.1322C60.0098 8.50895 60.1179 8.78674 60.2924 8.96507C60.4664 9.14389 60.7131 9.2156 61.032 9.17974C61.3462 9.14484 61.5618 9.02054 61.6799 8.80682C61.798 8.59311 61.8396 8.32919 61.8042 8.01507L61.4896 5.19518L62.4826 5.08475L62.7891 7.83147C62.8603 8.46975 62.7551 8.96315 62.4735 9.31217C62.1919 9.66167 61.7401 9.87155 61.1162 9.94088C60.5171 10.0078 60.029 9.90359 59.6508 9.62772C59.2726 9.35186 59.0464 8.88284 58.9728 8.22114L58.6697 5.51025ZM66.9089 5.01732L66.918 5.80477L65.62 5.82056L65.6659 9.62726L64.6666 9.63921L64.6207 5.8325L63.3518 5.84779L63.3427 5.05988L66.9089 5.01732ZM67.3651 9.60668L67.5506 5.0159L68.5489 5.05653L68.4752 6.87814L70.217 6.94888L70.2911 5.12682L71.2894 5.16747L71.1029 9.75826L70.1046 9.71809L70.1849 7.73585L68.4437 7.6651L68.3633 9.64733L67.3651 9.60668ZM74.66 5.46628C74.9828 5.5117 75.2739 5.60683 75.5335 5.75122C75.7932 5.89561 76.0078 6.08159 76.1766 6.30965C76.3458 6.53723 76.4668 6.80545 76.5385 7.11526C76.6102 7.42508 76.6198 7.76741 76.5672 8.14272C76.5156 8.50895 76.4118 8.82833 76.2555 9.10037C76.0991 9.37337 75.906 9.59665 75.6755 9.77068C75.4446 9.94424 75.1831 10.0657 74.8914 10.135C74.5993 10.2043 74.2919 10.2163 73.9692 10.1713C73.6464 10.1259 73.3553 10.0322 73.0957 9.89021C72.8356 9.74774 72.6209 9.56318 72.4517 9.3356C72.2824 9.10802 72.1619 8.84028 72.0897 8.53333C72.0175 8.22591 72.008 7.88454 72.0606 7.50922C72.1117 7.14299 72.2159 6.82266 72.3723 6.54775C72.5286 6.27284 72.7227 6.04717 72.9537 5.87075C73.1846 5.69433 73.4461 5.57193 73.7382 5.50261C74.0304 5.43281 74.3378 5.42086 74.66 5.46628ZM73.1076 7.65649C73.0698 7.92614 73.0689 8.1652 73.1057 8.37413C73.1435 8.58306 73.2071 8.7614 73.2998 8.90961C73.3916 9.05783 73.5064 9.17448 73.6441 9.26006C73.7822 9.34564 73.9352 9.40062 74.1035 9.42405C74.2675 9.447 74.4272 9.43649 74.5831 9.39202C74.7389 9.34804 74.8795 9.26676 75.0038 9.14915C75.1286 9.03201 75.2362 8.87758 75.327 8.68681C75.4174 8.49557 75.4819 8.26511 75.5197 7.99546C75.5589 7.71625 75.5603 7.47098 75.524 7.25965C75.4876 7.04833 75.4231 6.86857 75.3308 6.72083C75.2385 6.57262 75.1238 6.45691 74.9856 6.37372C74.8475 6.29053 74.6945 6.23698 74.5257 6.21355C74.3574 6.18965 74.1963 6.2016 74.0418 6.24846C73.8879 6.29579 73.7488 6.37802 73.6245 6.49564C73.5001 6.61277 73.3921 6.76817 73.3013 6.9618C73.2099 7.15543 73.1454 7.38636 73.1076 7.65649ZM77.74 6.02374L79.4512 6.35603C79.7036 6.40528 79.9197 6.48608 80.0985 6.59748C80.2773 6.70888 80.4193 6.84035 80.5236 6.99191C80.6278 7.14347 80.6957 7.31033 80.7272 7.49249C80.7588 7.67417 80.7554 7.86303 80.7172 8.05858C80.6823 8.23978 80.6235 8.39564 80.5412 8.52569C80.459 8.65621 80.3663 8.76426 80.2625 8.8508C80.1588 8.93734 80.0493 9.00476 79.9336 9.054C79.8174 9.10372 79.7074 9.14005 79.6032 9.16444L80.35 11.2117L79.2255 10.9932L78.6824 9.16396L78.1598 9.06261L77.8371 10.7231L76.8632 10.5342L77.74 6.02374ZM78.3056 8.31101L78.6924 8.3856C78.9501 8.43581 79.1715 8.42432 79.357 8.35165C79.5415 8.2785 79.6582 8.12026 79.705 7.8769C79.7471 7.66223 79.7136 7.48341 79.6046 7.34093C79.4966 7.19846 79.3159 7.10283 79.0625 7.05359L78.5686 6.95749L78.3056 8.31101ZM82.8362 7.16068L81.7375 11.6219L80.7674 11.3833L81.8661 6.92211L82.8362 7.16068ZM86.8743 8.36313L86.6481 9.11759L85.4046 8.74419L84.3092 12.3902L83.3525 12.1029L84.4474 8.45683L83.232 8.09157L83.4587 7.33711L86.8743 8.36313ZM88.4912 8.95837L88.7155 10.9827L90.3128 9.7071L91.3173 10.1207L88.8073 12.0058L88.0863 13.7595L87.1621 13.3799L87.8836 11.6262L87.4523 8.53094L88.4912 8.95837ZM95.6265 12.0986C95.9148 12.2506 96.1558 12.439 96.3509 12.6632C96.5459 12.8875 96.6841 13.1351 96.7659 13.4067C96.8481 13.6787 96.8701 13.9723 96.8318 14.2878C96.7941 14.6034 96.687 14.9285 96.5096 15.2641C96.3365 15.5907 96.1304 15.8556 95.8909 16.0588C95.6514 16.262 95.3937 16.4063 95.1178 16.491C94.8415 16.5761 94.5546 16.6014 94.2563 16.5675C93.9579 16.5335 93.6644 16.4403 93.377 16.2882C93.0887 16.1357 92.8468 15.9483 92.6508 15.7265C92.4547 15.5042 92.3156 15.2575 92.2339 14.9859C92.1516 14.7143 92.1296 14.4217 92.1665 14.1086C92.2028 13.7949 92.3099 13.4708 92.4873 13.1356C92.6599 12.8086 92.8669 12.5428 93.1074 12.3372C93.3479 12.1321 93.6065 11.9858 93.8838 11.8983C94.1611 11.8112 94.4489 11.7849 94.7468 11.8189C95.0456 11.8528 95.3382 11.9461 95.6265 12.0986ZM93.422 13.63C93.2943 13.8705 93.2126 14.0956 93.1762 14.3046C93.1399 14.5135 93.1399 14.7033 93.1762 14.874C93.2121 15.0442 93.2809 15.1934 93.3813 15.3206C93.4817 15.4482 93.6065 15.5515 93.7571 15.6313C93.9034 15.7083 94.0574 15.7528 94.2195 15.7638C94.3811 15.7752 94.5407 15.747 94.6976 15.6787C94.8544 15.6108 95.0083 15.5022 95.1585 15.3535C95.3086 15.2044 95.4472 15.0103 95.5749 14.7693C95.7068 14.5197 95.7915 14.2898 95.8288 14.0784C95.8665 13.8676 95.867 13.6763 95.8307 13.5061C95.7943 13.3354 95.7255 13.1877 95.6241 13.0625C95.5223 12.9372 95.3966 12.8349 95.2459 12.755C95.0958 12.6757 94.94 12.6322 94.7793 12.624C94.6187 12.6154 94.4599 12.6455 94.3022 12.7139C94.1449 12.7823 93.9909 12.8918 93.8398 13.0429C93.6883 13.1935 93.5491 13.3895 93.422 13.63ZM98.5406 13.7418L99.3003 14.2458L99.2821 17.1383C99.2802 17.3348 99.2726 17.5242 99.2606 17.7054C99.2482 17.887 99.2338 18.0247 99.2181 18.1194L99.2305 18.1271C99.3806 17.8478 99.5422 17.5772 99.7158 17.3157C99.8889 17.0547 100.064 16.7898 100.241 16.5225L101.002 15.3736L101.775 15.8847L99.2372 19.7153L98.477 19.2119L98.4818 16.5378C98.4827 16.4216 98.4866 16.3031 98.4937 16.1826C98.5009 16.0616 98.5086 15.9459 98.5176 15.8355C98.5267 15.725 98.5363 15.6246 98.5463 15.5348C98.5564 15.4453 98.5674 15.3731 98.5812 15.3177L98.5688 15.3096C98.4043 15.6026 98.237 15.8785 98.0687 16.1372C97.9004 16.3963 97.7278 16.6593 97.55 16.9265L96.7807 18.0879L96.0023 17.5724L98.5406 13.7418ZM105.56 18.696C105.837 18.9183 106.059 19.1574 106.229 19.4122C106.398 19.667 106.506 19.9324 106.553 20.2073C106.6 20.4827 106.581 20.7629 106.498 21.0483C106.414 21.3337 106.258 21.6187 106.03 21.9027C105.767 22.2283 105.489 22.4649 105.195 22.6122C104.901 22.7594 104.602 22.8364 104.297 22.8436C103.992 22.8503 103.688 22.7915 103.386 22.6662C103.084 22.5414 102.796 22.3693 102.524 22.1494L101.428 21.2663L104.311 17.6891L105.56 18.696ZM102.691 21.2912L102.958 21.5063C103.117 21.6345 103.287 21.7387 103.468 21.8195C103.65 21.9008 103.837 21.9385 104.028 21.9333C104.22 21.9285 104.414 21.873 104.612 21.7669C104.81 21.6612 105.007 21.4853 105.206 21.2391C105.496 20.8795 105.616 20.5219 105.565 20.1657C105.515 19.8095 105.318 19.493 104.973 19.2152L104.604 18.9178L102.691 21.2912ZM108.029 20.7729L110.26 22.7633L109.746 23.3403L108.26 22.015L107.561 22.7987L108.905 23.9982L108.395 24.5691L107.051 23.37L106.23 24.2899L107.733 25.63L107.218 26.2071L104.97 24.2019L108.029 20.7729ZM111.365 23.9375L110.164 26.0957C110.123 26.1664 110.074 26.2516 110.018 26.351C109.96 26.45 109.9 26.5518 109.838 26.6565C109.776 26.7607 109.713 26.864 109.648 26.9668C109.584 27.0691 109.525 27.159 109.471 27.2365L109.485 27.2522C109.648 27.1547 109.843 27.0524 110.07 26.9438C110.298 26.8353 110.504 26.7383 110.69 26.6522L112.932 25.6271L113.632 26.3811L109.146 28.3026L108.408 27.5056L110.646 23.162L111.365 23.9375ZM114.007 26.8525L115.928 29.1446L115.336 29.6409L114.057 28.1147L113.252 28.7898L114.409 30.1701L113.822 30.6626L112.665 29.2818L111.72 30.0735L113.013 31.6159L112.421 32.1127L110.486 29.8044L114.007 26.8525ZM116.394 29.8178L117.001 30.6114L113.978 32.925L115.103 34.3961L114.478 34.8747L112.745 32.6099L116.394 29.8178ZM119.677 34.4363C119.848 34.7126 119.962 34.9971 120.017 35.2888C120.072 35.5809 120.066 35.8649 120 36.1407C119.934 36.4161 119.804 36.681 119.613 36.9344C119.421 37.1878 119.164 37.4144 118.842 37.6143C118.528 37.8093 118.216 37.9341 117.907 37.9886C117.598 38.0431 117.303 38.0374 117.021 37.9719C116.74 37.9059 116.479 37.783 116.239 37.6033C115.998 37.4235 115.792 37.195 115.621 36.9181C115.449 36.6413 115.334 36.3578 115.277 36.0671C115.219 35.7764 115.224 35.4934 115.291 35.217C115.357 34.9417 115.485 34.6777 115.675 34.4253C115.864 34.1733 116.12 33.9472 116.443 33.7473C116.757 33.5523 117.07 33.427 117.381 33.3711C117.692 33.3151 117.99 33.3194 118.273 33.384C118.556 33.4485 118.818 33.5709 119.059 33.7507C119.299 33.9309 119.505 34.1595 119.677 34.4363ZM117 34.6462C116.769 34.7891 116.585 34.9421 116.448 35.1047C116.311 35.2663 116.215 35.4308 116.16 35.5957C116.106 35.7616 116.09 35.9246 116.113 36.0853C116.135 36.2459 116.191 36.3984 116.28 36.5428C116.368 36.6834 116.478 36.7996 116.613 36.8909C116.746 36.9822 116.898 37.0382 117.068 37.0582C117.238 37.0788 117.426 37.063 117.63 37.0099C117.835 36.9573 118.053 36.8593 118.285 36.7159C118.524 36.5672 118.713 36.4109 118.853 36.2478C118.991 36.0843 119.088 35.9199 119.143 35.7544C119.197 35.5885 119.213 35.426 119.188 35.2668C119.163 35.1076 119.106 34.9555 119.017 34.8111C118.927 34.6667 118.815 34.5501 118.68 34.4621C118.546 34.3741 118.393 34.3196 118.223 34.2991C118.053 34.279 117.865 34.2957 117.658 34.3498C117.45 34.4033 117.231 34.5023 117 34.6462ZM121.353 37.3202L122.066 38.7651C122.184 39.0051 122.263 39.236 122.303 39.4579C122.341 39.6802 122.341 39.8867 122.299 40.0775C122.258 40.2687 122.179 40.4394 122.061 40.5905C121.943 40.7406 121.783 40.8654 121.583 40.9644C121.347 41.081 121.123 41.1375 120.91 41.1341C120.697 41.1312 120.498 41.082 120.312 40.9864C120.126 40.8908 119.957 40.7559 119.803 40.5828C119.65 40.4088 119.517 40.209 119.405 39.9819L119.172 39.5114L117.675 40.251L117.232 39.3551L121.353 37.3202ZM119.859 39.172L120.04 39.5382C120.096 39.6515 120.159 39.7548 120.229 39.847C120.299 39.9403 120.379 40.0125 120.466 40.0641C120.555 40.1157 120.649 40.143 120.752 40.1468C120.854 40.1506 120.966 40.1224 121.088 40.0622C121.301 39.9565 121.423 39.8074 121.452 39.6137C121.481 39.4201 121.441 39.2126 121.331 38.9903L121.115 38.5523L119.859 39.172ZM123.312 41.2933L123.815 42.4503L122.158 43.8875C122.085 43.9511 122.006 44.019 121.921 44.0903C121.835 44.162 121.749 44.2323 121.662 44.3021C121.576 44.3714 121.491 44.4378 121.407 44.5009C121.323 44.5641 121.244 44.6195 121.169 44.6678L121.181 44.6946C121.258 44.6769 121.35 44.6582 121.455 44.6386C121.561 44.6195 121.671 44.6009 121.785 44.5827C121.899 44.565 122.011 44.5483 122.12 44.5325C122.23 44.5162 122.33 44.5019 122.42 44.4895L124.593 44.2361L125.096 45.3931L121.019 47.5408L120.644 46.6778C121.096 46.4497 121.549 46.2212 122 45.9926C122.452 45.7636 122.913 45.5423 123.382 45.3276L123.927 45.0823L123.918 45.0622C123.647 45.111 123.364 45.1593 123.066 45.2066C122.769 45.254 122.506 45.2898 122.278 45.3147L120.147 45.5346L119.838 44.8256L121.452 43.3994C121.66 43.2187 121.884 43.037 122.122 42.8534C122.36 42.6703 122.57 42.5149 122.754 42.3872L122.745 42.3671C122.585 42.437 122.415 42.5082 122.238 42.5804C122.06 42.6526 121.882 42.7233 121.705 42.7922C121.529 42.861 121.355 42.9284 121.185 42.9949C121.015 43.0609 120.859 43.1192 120.717 43.1704L119.338 43.6752L118.968 42.8257L123.312 41.2933ZM125.586 46.9082L126.509 49.7525L125.774 49.9911L125.159 48.0973L124.16 48.4219L124.717 50.135L123.988 50.3716L123.432 48.6581L122.26 49.0387L122.881 50.953L122.146 51.1921L121.215 48.3268L125.586 46.9082ZM126.732 50.5744L126.968 51.455L125.039 53.6103C124.907 53.7566 124.776 53.8934 124.647 54.021C124.518 54.1492 124.416 54.2429 124.341 54.3031L124.345 54.3175C124.642 54.2075 124.943 54.1119 125.246 54.0306C125.549 53.9493 125.855 53.8671 126.165 53.7839L127.497 53.4272L127.736 54.3218L123.298 55.5118L123.062 54.6311L124.837 52.6297C124.914 52.5442 124.996 52.4576 125.081 52.372C125.166 52.2865 125.249 52.2052 125.329 52.1287C125.409 52.0512 125.482 51.9829 125.549 51.9221C125.616 51.8614 125.673 51.8146 125.719 51.7821L125.716 51.7682C125.398 51.8782 125.09 51.9747 124.793 52.057C124.495 52.1392 124.191 52.2219 123.881 52.3051L122.535 52.6656L122.294 51.7639L126.732 50.5744ZM128.451 58.7022L127.674 58.8289L127.464 57.5476L123.707 58.1619L123.546 57.1756L127.303 56.5617L127.098 55.3095L127.876 55.1819L128.451 58.7022ZM7.39879 78.1392L7.5843 79.1131L8.0624 78.8392C8.20966 78.7521 8.35883 78.669 8.50992 78.5896C8.661 78.5102 8.81352 78.4328 8.96747 78.3577L8.96507 78.3453C8.80204 78.33 8.63566 78.3113 8.46498 78.2889C8.29477 78.2669 8.12121 78.2434 7.94383 78.2181L7.39879 78.1392ZM9.75061 77.7668L9.91508 78.6312L6.3503 80.7803L6.18201 79.8977L7.0077 79.4311L6.74809 78.0675L5.80861 77.9375L5.6427 77.0668L9.75061 77.7668ZM10.2206 80.1506L10.452 80.9677L8.2044 81.605C7.89411 81.693 7.67657 81.8226 7.55131 81.9932C7.42556 82.1644 7.40022 82.3805 7.47481 82.643C7.54796 82.9017 7.68231 83.0656 7.87785 83.134C8.0734 83.2033 8.3005 83.2014 8.55916 83.1278L10.8785 82.4699L11.1099 83.2865L8.84985 83.9277C8.32537 84.0768 7.89698 84.0577 7.56518 83.8703C7.23289 83.6834 6.99383 83.3334 6.84849 82.8209C6.70888 82.3279 6.72801 81.9034 6.90634 81.5481C7.08467 81.1929 7.44613 80.9376 7.99069 80.7831L10.2206 80.1506ZM12.123 86.4377L11.4876 86.6481L11.141 85.6001L8.06958 86.6161L7.80327 85.8105L10.8746 84.7945L10.5357 83.7704L11.1711 83.5605L12.123 86.4377ZM12.8755 88.1781C12.9754 88.4358 13.0256 88.6911 13.0261 88.9435C13.0261 89.1959 12.9769 89.4321 12.8784 89.6521C12.7794 89.872 12.6303 90.0728 12.4304 90.2545C12.2306 90.4362 11.98 90.5849 11.6798 90.701C11.3872 90.8148 11.107 90.8698 10.8397 90.8669C10.573 90.8641 10.3272 90.8134 10.103 90.7139C9.87826 90.615 9.67985 90.4715 9.50725 90.2832C9.33465 90.0953 9.19839 89.8725 9.09847 89.6143C8.99855 89.3561 8.94738 89.1013 8.94547 88.8493C8.94308 88.5978 8.99089 88.3621 9.08986 88.1422C9.18883 87.9223 9.33704 87.7219 9.53498 87.5412C9.73292 87.36 9.98249 87.2113 10.2832 87.0951C10.5758 86.9818 10.8565 86.9259 11.1256 86.9283C11.3943 86.9307 11.642 86.9809 11.8682 87.0789C12.0948 87.1774 12.2941 87.3208 12.4667 87.5087C12.6393 87.6966 12.7756 87.9199 12.8755 88.1781ZM10.6074 87.9328C10.3917 88.0165 10.2139 88.1154 10.0743 88.2292C9.93468 88.3435 9.82854 88.4649 9.75682 88.5945C9.68559 88.7241 9.64638 88.8579 9.63968 88.9956C9.63347 89.1333 9.65642 89.2696 9.70854 89.4044C9.75922 89.5354 9.83332 89.6497 9.93085 89.7467C10.0284 89.8443 10.1465 89.915 10.2856 89.959C10.4243 90.002 10.583 90.0183 10.7623 90.0063C10.9416 89.9949 11.1395 89.9466 11.3551 89.8634C11.5784 89.7769 11.7611 89.6764 11.9031 89.5612C12.0446 89.4465 12.1512 89.3246 12.2224 89.195C12.2941 89.0649 12.3324 88.932 12.3367 88.7953C12.3415 88.6581 12.3176 88.5223 12.2655 88.3875C12.2133 88.2526 12.1378 88.1379 12.0388 88.0432C11.9403 87.9486 11.8213 87.8792 11.6831 87.8352C11.544 87.7917 11.3843 87.7764 11.2026 87.7884C11.0214 87.8018 10.823 87.8496 10.6074 87.9328ZM13.6773 90.2707L14.3232 91.6037C14.4189 91.8007 14.4743 91.9886 14.4896 92.1669C14.5049 92.3452 14.4877 92.5088 14.438 92.657C14.3883 92.8052 14.3094 92.9362 14.2018 93.05C14.0942 93.1647 13.9642 93.2584 13.8112 93.3321C13.6701 93.4009 13.5344 93.4406 13.4038 93.4506C13.2733 93.4612 13.1528 93.453 13.0414 93.4267C12.9295 93.4004 12.8277 93.3607 12.735 93.3062C12.6422 93.2527 12.5614 93.1968 12.4916 93.1389L11.4804 94.6894L11.0558 93.814L12.0226 92.5116L11.8256 92.1052L10.5318 92.732L10.1642 91.9733L13.6773 90.2707ZM12.4108 91.8212L12.5566 92.1224C12.6542 92.3233 12.7746 92.4681 12.919 92.5566C13.0629 92.645 13.2298 92.6436 13.4191 92.5513C13.5865 92.47 13.6907 92.3567 13.7323 92.2099C13.7739 92.0636 13.7471 91.8915 13.6515 91.695L13.465 91.3106L12.4108 91.8212ZM15.5228 93.9933L12.0991 95.8708L11.6908 95.1264L15.114 93.2489L15.5228 93.9933ZM17.178 96.8729L16.6057 97.22L16.0339 96.2762L13.2671 97.9525L12.8272 97.2267L15.594 95.5505L15.0356 94.6282L15.6079 94.2816L17.178 96.8729ZM17.2956 97.1268L18.7061 99.24L18.1596 99.6044L17.2206 98.1973L16.4781 98.6926L17.3277 99.9658L16.7865 100.327L15.9369 99.0541L15.0657 99.6354L16.0153 101.058L15.4688 101.423L14.0478 99.2941L17.2956 97.1268ZM18.3566 97.9903L17.9779 97.4232L18.8925 97.4094L19.3912 98.1567L18.3566 97.9903ZM20.4425 101.652L17.298 103.965L16.7946 103.281L19.9396 100.967L20.4425 101.652ZM20.8547 102.18L21.3385 102.786L20.5707 105.12C20.5176 105.279 20.4626 105.431 20.4053 105.574C20.3479 105.717 20.3005 105.825 20.2633 105.897L20.2709 105.907C20.465 105.72 20.6663 105.543 20.8748 105.378C21.0827 105.211 21.2936 105.042 21.5063 104.872L22.4214 104.141L22.9129 104.756L19.8626 107.193L19.3792 106.588L20.0792 104.426C20.1103 104.333 20.1442 104.238 20.1815 104.142C20.2188 104.046 20.2551 103.955 20.2915 103.868C20.3278 103.781 20.3613 103.703 20.3928 103.632C20.4239 103.562 20.4526 103.506 20.4774 103.466L20.4698 103.456C20.2599 103.65 20.0534 103.829 19.8497 103.995C19.646 104.16 19.4376 104.328 19.2243 104.498L18.2997 105.237L17.8043 104.618L20.8547 102.18ZM25.0659 107.012L24.5844 107.477L23.8175 106.684L21.4915 108.932L20.902 108.322L23.2275 106.074L22.4779 105.298L22.9593 104.833L25.0659 107.012ZM25.2753 107.244L27.1036 109.008L26.6474 109.482L25.4302 108.306L24.8105 108.948L25.9116 110.011L25.4598 110.479L24.3587 109.417L23.6311 110.17L24.8617 111.358L24.4056 111.831L22.5639 110.053L25.2753 107.244ZM27.4373 109.319L28.5474 110.299C28.7114 110.444 28.8353 110.597 28.918 110.755C29.0012 110.914 29.048 111.071 29.0595 111.227C29.0705 111.383 29.0485 111.534 28.9926 111.681C28.9376 111.828 28.8539 111.965 28.7415 112.092C28.6378 112.21 28.5274 112.298 28.4112 112.358C28.295 112.418 28.1803 112.457 28.0674 112.476C27.9541 112.495 27.8446 112.497 27.7385 112.483C27.6323 112.469 27.5358 112.449 27.4492 112.422L27.1141 114.243L26.385 113.599L26.7751 112.025L26.4361 111.725L25.4837 112.803L24.8521 112.245L27.4373 109.319ZM26.8669 111.237L27.1174 111.459C27.2848 111.607 27.4521 111.693 27.619 111.72C27.7858 111.746 27.9393 111.68 28.0789 111.523C28.2018 111.383 28.2544 111.238 28.2362 111.087C28.218 110.936 28.1267 110.788 27.9627 110.643L27.6424 110.359L26.8669 111.237ZM31.4606 112.609C31.6499 112.763 31.8062 112.915 31.9281 113.066C32.0496 113.218 32.1481 113.369 32.2231 113.52L31.7216 113.855C31.6528 113.71 31.57 113.576 31.4711 113.455C31.3731 113.333 31.2664 113.226 31.1507 113.132C31.0183 113.026 30.8768 112.946 30.7262 112.893C30.5746 112.84 30.4197 112.824 30.26 112.844C30.1008 112.864 29.9392 112.923 29.7747 113.022C29.6103 113.12 29.4487 113.267 29.2909 113.463C29.0079 113.813 28.8687 114.146 28.873 114.46C28.8769 114.773 29.0241 115.047 29.3134 115.281C29.4802 115.416 29.6189 115.501 29.7284 115.536L30.3002 114.827L29.7986 114.422L30.1955 113.93L31.3296 114.845L30.0874 116.384C29.9182 116.337 29.7355 116.264 29.54 116.164C29.344 116.065 29.1389 115.928 28.9232 115.754C28.698 115.573 28.5154 115.37 28.3753 115.145C28.2352 114.921 28.1477 114.684 28.1124 114.435C28.0765 114.186 28.0966 113.931 28.1716 113.671C28.2467 113.41 28.3863 113.153 28.5914 112.899C28.7965 112.645 29.0198 112.452 29.2613 112.32C29.5027 112.189 29.7475 112.114 29.9951 112.096C30.2433 112.079 30.4924 112.114 30.7424 112.202C30.9925 112.29 31.232 112.425 31.4606 112.609ZM34.2594 114.597C34.4884 114.752 34.6754 114.933 34.8193 115.14C34.9637 115.348 35.0578 115.57 35.1023 115.806C35.1468 116.044 35.1386 116.294 35.0779 116.557C35.0172 116.82 34.8967 117.085 34.7169 117.352C34.5405 117.612 34.3421 117.817 34.1212 117.968C33.9008 118.117 33.6694 118.215 33.4284 118.262C33.1875 118.308 32.9427 118.304 32.6941 118.248C32.4455 118.192 32.2059 118.087 31.9764 117.932C31.7474 117.777 31.56 117.597 31.4142 117.391C31.2688 117.186 31.1737 116.964 31.1297 116.728C31.0852 116.491 31.0924 116.241 31.1522 115.98C31.2115 115.719 31.3315 115.455 31.5122 115.187C31.6881 114.927 31.887 114.721 32.1089 114.57C32.3307 114.418 32.5631 114.318 32.805 114.269C33.0474 114.222 33.2927 114.225 33.5418 114.281C33.7904 114.337 34.0299 114.442 34.2594 114.597ZM32.2566 115.69C32.1275 115.882 32.0376 116.065 31.9879 116.237C31.9382 116.411 31.921 116.571 31.9358 116.719C31.9506 116.866 31.9951 116.998 32.0682 117.115C32.1419 117.231 32.238 117.331 32.358 117.412C32.4741 117.49 32.6004 117.542 32.7357 117.566C32.8715 117.59 33.0087 117.581 33.1478 117.537C33.2864 117.494 33.4261 117.416 33.5666 117.305C33.7072 117.193 33.8425 117.04 33.9721 116.849C34.1059 116.651 34.1987 116.463 34.2494 116.289C34.3 116.114 34.3187 115.952 34.3029 115.805C34.2881 115.657 34.2431 115.526 34.169 115.412C34.0949 115.297 33.9979 115.199 33.8779 115.118C33.7579 115.037 33.6302 114.985 33.4954 114.964C33.3606 114.942 33.2233 114.954 33.0842 114.997C32.9451 115.04 32.805 115.119 32.6635 115.232C32.522 115.346 32.3866 115.498 32.2566 115.69ZM36.0781 115.906L36.8173 116.324L35.667 118.358C35.5087 118.639 35.4446 118.884 35.4752 119.093C35.5068 119.303 35.6407 119.475 35.8778 119.609C36.1121 119.741 36.3224 119.763 36.5103 119.675C36.6978 119.586 36.8579 119.425 36.9899 119.192L38.1765 117.093L38.9157 117.511L37.7596 119.556C37.4909 120.03 37.173 120.318 36.8053 120.418C36.4372 120.519 36.0217 120.438 35.5575 120.176C35.1119 119.923 34.8274 119.608 34.704 119.23C34.5807 118.852 34.6586 118.416 34.9369 117.924L36.0781 115.906ZM39.9087 118.046L39.5951 120.121C39.5836 120.19 39.5702 120.272 39.5545 120.368C39.5382 120.464 39.5215 120.563 39.5028 120.665C39.4842 120.766 39.4646 120.867 39.444 120.968C39.4234 121.069 39.4034 121.157 39.3828 121.235L39.3991 121.244C39.499 121.118 39.6238 120.978 39.7729 120.824C39.9216 120.67 40.0569 120.532 40.1793 120.408L41.6591 118.924L42.4398 119.316L39.4421 122.18L38.6174 121.767L39.1055 117.643L39.9087 118.046ZM42.6966 119.398L45.0116 120.446L44.7405 121.044L43.1996 120.346L42.8309 121.159L44.2256 121.791L43.9574 122.383L42.5627 121.752L42.1305 122.707L43.6887 123.412L43.418 124.01L41.0863 122.954L42.6966 119.398ZM45.2473 120.54L46.6496 121.018C46.8566 121.089 47.0287 121.181 47.1669 121.296C47.3046 121.411 47.4079 121.538 47.4786 121.677C47.5484 121.817 47.5867 121.965 47.5919 122.122C47.5972 122.279 47.5728 122.437 47.5178 122.598C47.4671 122.747 47.3997 122.871 47.3156 122.971C47.231 123.07 47.1406 123.151 47.0431 123.212C46.9465 123.273 46.8461 123.317 46.7423 123.345C46.6391 123.373 46.5425 123.391 46.4516 123.4L46.8432 125.209L45.9219 124.895L45.6766 123.292L45.2487 123.146L44.784 124.507L43.9865 124.235L45.2473 120.54ZM45.4586 122.53L45.7751 122.639C45.9864 122.71 46.1743 122.727 46.3383 122.687C46.5028 122.647 46.619 122.527 46.6874 122.328C46.7471 122.151 46.7399 121.997 46.6649 121.865C46.5903 121.733 46.4493 121.631 46.2418 121.56L45.8368 121.422L45.4586 122.53ZM48.409 121.634L49.1515 121.854L49.8558 124.209C49.9026 124.37 49.9437 124.525 49.9791 124.676C50.0145 124.826 50.037 124.942 50.0475 125.023L50.059 125.026C50.112 124.761 50.1761 124.502 50.2521 124.246C50.3277 123.991 50.4046 123.732 50.4821 123.471L50.8149 122.348L51.5698 122.571L50.4591 126.315L49.7166 126.094L49.0559 123.92C49.0277 123.826 49.0014 123.729 48.9775 123.629C48.9531 123.529 48.9311 123.433 48.911 123.341C48.891 123.248 48.8737 123.165 48.8594 123.09C48.8451 123.014 48.8369 122.952 48.8336 122.904L48.8216 122.901C48.7609 123.18 48.6935 123.446 48.6208 123.698C48.5481 123.95 48.4731 124.206 48.3956 124.468L48.059 125.602L47.2984 125.377L48.409 121.634ZM52.2148 122.719L54.6785 123.342L54.5173 123.979L52.8769 123.564L52.658 124.429L54.1415 124.804L53.9818 125.436L52.4983 125.06L52.2415 126.076L53.8996 126.495L53.7385 127.132L51.2571 126.504L52.2148 122.719ZM55.168 123.461L56.228 123.624L56.5101 125.466C56.5225 125.547 56.5349 125.634 56.5483 125.729C56.5608 125.822 56.5722 125.917 56.5832 126.01C56.5938 126.104 56.6028 126.195 56.6105 126.284C56.6172 126.373 56.6215 126.454 56.6224 126.53L56.6473 126.534C56.6698 126.471 56.6975 126.396 56.731 126.311C56.7654 126.227 56.8017 126.139 56.8405 126.049C56.8792 125.959 56.9179 125.871 56.9562 125.785C56.9944 125.699 57.0293 125.62 57.0613 125.55L57.8636 123.874L58.9231 124.036L58.62 127.939L57.8297 127.818C57.8703 127.39 57.9105 126.961 57.9511 126.533C57.9917 126.104 58.0415 125.673 58.0998 125.239L58.1701 124.736L58.1519 124.733C58.0644 124.949 57.9702 125.176 57.8693 125.411C57.7685 125.646 57.6752 125.851 57.5901 126.026L56.7821 127.658L56.1329 127.558L55.8388 125.752C55.8034 125.52 55.7738 125.278 55.7499 125.023C55.7265 124.769 55.7102 124.547 55.7011 124.357L55.683 124.355C55.6605 124.502 55.6347 124.656 55.606 124.816C55.5773 124.977 55.5477 125.137 55.5171 125.295C55.4865 125.453 55.4563 125.608 55.4267 125.761C55.3971 125.913 55.3688 126.052 55.3411 126.177L55.0791 127.397L54.3008 127.278L55.168 123.461ZM59.8382 124.129L62.3631 124.41L62.2899 125.063L60.6089 124.876L60.5104 125.763L62.0313 125.932L61.9596 126.579L60.4382 126.41L60.322 127.451L62.0227 127.64L61.9495 128.292L59.406 128.009L59.8382 124.129ZM62.6667 124.439L63.4412 124.461L64.7288 126.554C64.8158 126.697 64.8956 126.836 64.9683 126.973C65.0405 127.11 65.0926 127.215 65.1237 127.291L65.1361 127.291C65.1184 127.022 65.1136 126.754 65.1208 126.488C65.1285 126.221 65.1361 125.952 65.1433 125.679L65.1763 124.508L65.9628 124.53L65.8542 128.433L65.0797 128.411L63.8816 126.481C63.8299 126.397 63.7797 126.31 63.7305 126.22C63.6812 126.129 63.6353 126.042 63.5918 125.959C63.5488 125.875 63.5106 125.798 63.4776 125.729C63.4441 125.66 63.4202 125.602 63.4044 125.557L63.3925 125.557C63.4049 125.842 63.4087 126.116 63.4039 126.378C63.3987 126.64 63.392 126.908 63.3843 127.18L63.3518 128.364L62.5586 128.342L62.6667 124.439ZM69.2311 124.473L69.2493 125.142L68.1463 125.173L68.2347 128.407L67.3866 128.43L67.2976 125.196L66.2195 125.225L66.2013 124.556L69.2311 124.473ZM70.3661 126.777L71.3553 126.71L71.1402 126.202C71.0718 126.046 71.0073 125.887 70.9466 125.728C70.8858 125.569 70.827 125.408 70.7706 125.246L70.7577 125.247C70.7233 125.407 70.685 125.57 70.6425 125.737C70.5999 125.903 70.5555 126.073 70.5101 126.246L70.3661 126.777ZM70.2772 124.398L71.155 124.338L72.8633 128.134L71.9673 128.196L71.6021 127.32L70.217 127.415L69.976 128.332L69.092 128.393L70.2772 124.398ZM72.8915 124.171L73.7359 124.078L74.0892 127.294L75.654 127.122L75.7267 127.787L73.3185 128.052L72.8915 124.171ZM75.579 123.824L78.0914 123.447L78.1889 124.096L76.5161 124.347L76.649 125.23L78.1627 125.003L78.2592 125.646L76.7455 125.874L76.9005 126.909L78.5925 126.655L78.69 127.305L76.1584 127.685L75.579 123.824ZM79.9599 122.957L81.289 122.624C81.5094 122.57 81.7155 122.545 81.9067 122.553C82.098 122.56 82.2696 122.599 82.4207 122.667C82.5718 122.736 82.6999 122.833 82.8037 122.958C82.9069 123.083 82.982 123.238 83.0279 123.423C83.0824 123.639 83.0886 123.835 83.0475 124.012C83.0064 124.188 82.9294 124.345 82.817 124.482C82.7042 124.619 82.5617 124.735 82.3901 124.831C82.218 124.927 82.0282 125.001 81.8192 125.054L81.3865 125.161L81.7308 126.538L80.907 126.744L79.9599 122.957ZM81.2292 124.53L81.5658 124.446C81.6701 124.42 81.7666 124.386 81.856 124.345C81.9464 124.303 82.02 124.25 82.0788 124.187C82.1372 124.123 82.1773 124.049 82.1989 123.965C82.2208 123.881 82.2175 123.783 82.1893 123.67C82.1405 123.474 82.0377 123.347 81.8828 123.287C81.7274 123.228 81.5477 123.224 81.343 123.275L80.9405 123.376L81.2292 124.53ZM84.6104 121.586C84.872 121.495 85.1287 121.454 85.3807 121.463C85.6336 121.472 85.8678 121.529 86.084 121.636C86.3001 121.742 86.4951 121.899 86.6701 122.105C86.8441 122.311 86.9842 122.566 87.0899 122.871C87.1927 123.167 87.2381 123.449 87.2257 123.716C87.2132 123.983 87.1535 124.226 87.0469 124.447C86.9393 124.668 86.7892 124.861 86.5946 125.027C86.4009 125.193 86.1734 125.321 85.9118 125.412C85.6503 125.503 85.3936 125.544 85.1421 125.538C84.8906 125.531 84.6568 125.475 84.4402 125.368C84.2236 125.262 84.029 125.106 83.8555 124.902C83.6819 124.698 83.5423 124.443 83.4367 124.139C83.3334 123.842 83.2875 123.56 83.2995 123.291C83.3109 123.022 83.3702 122.776 83.4768 122.554C83.5834 122.331 83.7331 122.137 83.9272 121.971C84.1213 121.805 84.3489 121.677 84.6104 121.586ZM84.2853 123.844C84.3609 124.063 84.4536 124.244 84.5621 124.388C84.6716 124.531 84.7892 124.641 84.9164 124.717C85.0431 124.794 85.1756 124.837 85.3132 124.848C85.4505 124.86 85.5872 124.842 85.7239 124.795C85.8564 124.749 85.9735 124.679 86.0744 124.584C86.1743 124.49 86.2494 124.375 86.2981 124.238C86.3469 124.101 86.3684 123.942 86.3627 123.763C86.3574 123.583 86.3163 123.385 86.2408 123.166C86.1624 122.939 86.0682 122.753 85.9587 122.608C85.8492 122.462 85.7306 122.351 85.6035 122.275C85.4768 122.198 85.3448 122.156 85.2081 122.146C85.0718 122.137 84.9351 122.156 84.7988 122.203C84.6616 122.251 84.544 122.322 84.446 122.417C84.3479 122.512 84.2748 122.629 84.226 122.766C84.1777 122.903 84.1562 123.063 84.162 123.244C84.1687 123.426 84.2093 123.626 84.2853 123.844ZM86.8618 120.857L87.6498 120.541L88.518 122.71C88.638 123.009 88.7891 123.212 88.9722 123.319C89.1553 123.427 89.3733 123.429 89.6263 123.328C89.8758 123.228 90.0245 123.077 90.0728 122.875C90.1211 122.674 90.0953 122.448 89.9958 122.199L89.0999 119.96L89.8883 119.645L90.7608 121.826C90.9635 122.332 90.9889 122.76 90.8373 123.11C90.6858 123.46 90.363 123.734 89.8682 123.932C89.3925 124.122 88.9684 124.147 88.5964 124.007C88.2244 123.866 87.9328 123.534 87.7229 123.008L86.8618 120.857ZM90.3444 119.456L91.6697 118.795C91.8657 118.697 92.0522 118.639 92.2305 118.622C92.4093 118.604 92.5728 118.62 92.7215 118.668C92.8702 118.716 93.0022 118.793 93.1179 118.9C93.2331 119.006 93.3283 119.135 93.4043 119.286C93.4746 119.427 93.5152 119.562 93.5272 119.693C93.5391 119.823 93.5324 119.944 93.5071 120.055C93.4827 120.167 93.444 120.27 93.3909 120.363C93.3383 120.457 93.2833 120.538 93.2259 120.608L94.7884 121.601L93.9178 122.036L92.6049 121.084L92.1999 121.287L92.842 122.573L92.088 122.949L90.3444 119.456ZM91.9097 120.704L92.209 120.555C92.4084 120.455 92.5513 120.333 92.6388 120.188C92.7258 120.043 92.722 119.876 92.6283 119.687C92.5451 119.521 92.4299 119.418 92.2831 119.378C92.1363 119.339 91.9647 119.367 91.7691 119.465L91.3862 119.656L91.9097 120.704ZM94.7062 117.255L95.4358 116.82L97.0929 119.598L98.445 118.791L98.7878 119.366L96.707 120.608L94.7062 117.255ZM97.002 115.932L99.1081 114.51L99.4758 115.055L98.073 116.001L98.5722 116.741L99.841 115.885L100.205 116.425L98.936 117.281L99.5212 118.149L100.94 117.192L101.307 117.737L99.1851 119.168L97.002 115.932ZM101.808 112.569C102.043 112.379 102.281 112.236 102.523 112.142C102.765 112.047 103.005 112.005 103.242 112.015C103.479 112.025 103.708 112.091 103.93 112.211C104.153 112.331 104.362 112.512 104.556 112.753C104.78 113.029 104.926 113.303 104.996 113.572C105.066 113.843 105.077 114.105 105.028 114.36C104.979 114.615 104.876 114.857 104.718 115.086C104.56 115.314 104.365 115.522 104.134 115.709L103.205 116.462L100.748 113.426L101.808 112.569ZM103.451 115.417L103.678 115.234C103.813 115.124 103.93 115.001 104.029 114.865C104.129 114.729 104.194 114.581 104.224 114.421C104.254 114.261 104.243 114.089 104.19 113.906C104.137 113.723 104.026 113.527 103.858 113.318C103.61 113.013 103.335 112.849 103.03 112.828C102.725 112.806 102.427 112.913 102.135 113.149L101.822 113.403L103.451 115.417ZM103.775 110.965L105.703 109.309L106.131 109.807L104.847 110.91L105.429 111.586L106.591 110.589L107.014 111.082L105.854 112.08L106.536 112.874L107.833 111.759L108.261 112.257L106.32 113.926L103.775 110.965ZM109.26 105.029L108.738 105.615L108.613 104.709L109.3 103.981L109.26 105.029ZM106.373 108.658L108.213 109.668C108.273 109.702 108.346 109.743 108.43 109.791C108.515 109.839 108.602 109.889 108.691 109.942C108.78 109.994 108.868 110.047 108.955 110.101C109.043 110.155 109.12 110.205 109.185 110.251L109.199 110.238C109.115 110.101 109.027 109.936 108.934 109.743C108.84 109.55 108.757 109.375 108.683 109.218L107.801 107.318L108.437 106.72L110.093 110.521L109.42 111.153L105.717 109.273L106.373 108.658ZM108.462 106.634L110.153 104.738L110.643 105.175L109.518 106.437L110.183 107.031L111.202 105.889L111.689 106.322L110.669 107.464L111.451 108.162L112.589 106.885L113.08 107.322L111.376 109.233L108.462 106.634ZM110.463 104.402L110.999 103.744L113.506 105.79L114.501 104.57L115.02 104.993L113.488 106.871L110.463 104.402ZM113.144 100.913C113.311 100.693 113.503 100.516 113.717 100.383C113.932 100.251 114.159 100.169 114.398 100.137C114.637 100.106 114.886 100.128 115.146 100.203C115.405 100.278 115.663 100.413 115.92 100.608C116.17 100.798 116.364 101.008 116.501 101.236C116.638 101.466 116.724 101.701 116.757 101.945C116.79 102.188 116.772 102.432 116.702 102.677C116.633 102.923 116.514 103.156 116.347 103.376C116.179 103.597 115.989 103.773 115.776 103.908C115.563 104.042 115.337 104.123 115.098 104.155C114.859 104.186 114.61 104.165 114.353 104.091C114.095 104.017 113.838 103.883 113.581 103.688C113.331 103.498 113.136 103.288 112.997 103.058C112.858 102.828 112.771 102.59 112.736 102.346C112.702 102.102 112.719 101.857 112.789 101.612C112.858 101.366 112.977 101.133 113.144 100.913ZM114.124 102.972C114.309 103.112 114.486 103.212 114.657 103.271C114.826 103.33 114.986 103.357 115.134 103.35C115.282 103.343 115.416 103.306 115.537 103.239C115.657 103.172 115.761 103.082 115.849 102.967C115.934 102.855 115.992 102.732 116.024 102.597C116.056 102.463 116.054 102.326 116.018 102.185C115.982 102.044 115.913 101.9 115.809 101.753C115.705 101.607 115.56 101.464 115.377 101.324C115.185 101.179 115.004 101.076 114.832 101.015C114.66 100.955 114.5 100.929 114.353 100.935C114.204 100.942 114.071 100.98 113.952 101.048C113.833 101.115 113.73 101.207 113.643 101.322C113.555 101.437 113.497 101.562 113.468 101.696C113.439 101.829 113.442 101.967 113.478 102.108C113.513 102.249 113.584 102.393 113.689 102.541C113.795 102.689 113.94 102.833 114.124 102.972ZM114.492 99.1769L115.215 98.0137C115.335 97.821 115.466 97.6609 115.609 97.5327C115.752 97.4051 115.901 97.3128 116.057 97.2573C116.214 97.2009 116.373 97.1818 116.534 97.1995C116.696 97.2177 116.857 97.2765 117.019 97.3769C117.209 97.495 117.35 97.6312 117.443 97.7866C117.536 97.942 117.59 98.1079 117.604 98.2848C117.619 98.4612 117.598 98.6443 117.541 98.8322C117.484 99.0215 117.399 99.2066 117.286 99.3892L117.051 99.7684L118.256 100.517L117.807 101.238L114.492 99.1769ZM116.497 99.4246L116.681 99.1296C116.737 99.0388 116.784 98.9465 116.819 98.8547C116.855 98.7624 116.872 98.673 116.869 98.586C116.867 98.4999 116.844 98.4191 116.801 98.3436C116.758 98.2681 116.688 98.1997 116.59 98.139C116.417 98.0319 116.255 98.0113 116.102 98.0768C115.949 98.1428 115.818 98.2647 115.707 98.444L115.487 98.7964L116.497 99.4246ZM116.238 96.3834L116.919 95.1948C117.032 94.9978 117.157 94.8328 117.295 94.6999C117.433 94.567 117.579 94.47 117.734 94.4083C117.888 94.3466 118.046 94.3217 118.208 94.3337C118.371 94.3457 118.534 94.3992 118.699 94.4939C118.893 94.6043 119.039 94.7358 119.137 94.8873C119.236 95.0394 119.296 95.2029 119.316 95.3793C119.337 95.5557 119.323 95.7389 119.273 95.9291C119.223 96.1199 119.145 96.3088 119.038 96.4947L118.816 96.882L120.048 97.5877L119.626 98.3245L116.238 96.3834ZM118.252 96.5583L118.424 96.2571C118.478 96.1644 118.52 96.0711 118.552 95.977C118.585 95.8837 118.598 95.7943 118.593 95.7078C118.587 95.6212 118.562 95.5409 118.516 95.4673C118.47 95.3937 118.397 95.3277 118.297 95.2703C118.121 95.1694 117.958 95.1551 117.808 95.2258C117.658 95.2971 117.53 95.4238 117.426 95.6069L117.219 95.9669L118.252 96.5583ZM117.826 93.5596L118.977 91.2944L119.563 91.5927L118.796 93.1002L119.592 93.5047L120.285 92.1406L120.865 92.4351L120.172 93.8001L121.105 94.2744L121.88 92.7497L122.466 93.0471L121.306 95.3291L117.826 93.5596ZM119.234 90.8492L119.628 89.8524L121.487 89.9877C121.57 89.9934 121.658 90.0001 121.752 90.0087C121.846 90.0178 121.941 90.0269 122.034 90.0374C122.128 90.0475 122.218 90.0589 122.307 90.0718C122.395 90.0847 122.476 90.0986 122.55 90.1149L122.559 90.0914C122.502 90.0561 122.436 90.0121 122.361 89.96C122.286 89.9083 122.209 89.8533 122.13 89.7955C122.051 89.7376 121.973 89.6803 121.898 89.6234C121.823 89.567 121.754 89.5158 121.693 89.4689L120.237 88.3134L120.631 87.3165L124.369 88.4817L124.075 89.2246C123.666 89.0898 123.257 88.955 122.849 88.8202C122.44 88.6849 122.031 88.5409 121.62 88.387L121.146 88.2063L121.139 88.2235C121.331 88.3573 121.53 88.4993 121.736 88.6499C121.944 88.8006 122.123 88.9373 122.274 89.0592L123.685 90.2105L123.443 90.821L121.616 90.7049C121.383 90.6886 121.14 90.6633 120.887 90.6298C120.633 90.5963 120.414 90.5624 120.227 90.5289L120.22 90.5461C120.359 90.6006 120.503 90.6599 120.653 90.724C120.803 90.7876 120.952 90.8521 121.1 90.9171C121.247 90.9822 121.392 91.0462 121.534 91.1089C121.675 91.172 121.804 91.2308 121.921 91.2853L123.051 91.8122L122.762 92.5446L119.234 90.8492ZM120.95 86.4339L121.798 84.0391L122.417 84.2585L121.853 85.853L122.694 86.1509L123.205 84.7079L123.818 84.925L123.307 86.3684L124.295 86.7179L124.866 85.1053L125.485 85.3247L124.63 87.7377L120.95 86.4339ZM121.93 83.7799L122.123 83.0298L124.451 82.2414C124.609 82.1883 124.763 82.1415 124.913 82.1013C125.062 82.0607 125.176 82.0334 125.257 82.02L125.26 82.0081C124.994 81.965 124.731 81.9105 124.473 81.8441C124.215 81.7771 123.954 81.7102 123.69 81.6418L122.556 81.3497L122.752 80.5876L126.533 81.562L126.34 82.3117L124.191 83.0508C124.097 83.0824 124.002 83.112 123.902 83.1397C123.803 83.1675 123.708 83.1933 123.617 83.2167C123.526 83.2402 123.443 83.2602 123.368 83.2774C123.293 83.2942 123.232 83.3052 123.184 83.3095L123.18 83.3219C123.462 83.3726 123.729 83.43 123.984 83.4935C124.238 83.5571 124.498 83.6231 124.762 83.691L125.908 83.9865L125.711 84.7548L121.93 83.7799ZM123.461 77.3661L124.116 77.5024L123.892 78.5824L127.059 79.2403L126.887 80.0712L123.719 79.4134L123.5 80.4695L122.845 80.3333L123.461 77.3661Z" fill="white"/>
<path d="M41.1655 162H38.3823V148.492H41.1655V162Z" fill="white"/>
<path d="M54.3579 157.5C54.2528 158.954 53.7147 160.098 52.7437 160.933C51.7788 161.768 50.5047 162.186 48.9214 162.186C47.1896 162.186 45.8258 161.604 44.8301 160.441C43.8405 159.272 43.3457 157.671 43.3457 155.636V154.81C43.3457 153.511 43.5745 152.367 44.0322 151.377C44.4899 150.388 45.1424 149.63 45.9897 149.104C46.8433 148.573 47.8328 148.307 48.9585 148.307C50.5171 148.307 51.7726 148.724 52.7251 149.559C53.6776 150.394 54.228 151.566 54.3765 153.075H51.5933C51.5252 152.203 51.2809 151.572 50.8604 151.183C50.446 150.787 49.812 150.589 48.9585 150.589C48.0308 150.589 47.335 150.923 46.8711 151.591C46.4134 152.253 46.1784 153.282 46.166 154.68V155.701C46.166 157.16 46.3856 158.227 46.8247 158.901C47.27 159.576 47.9689 159.913 48.9214 159.913C49.7811 159.913 50.4212 159.718 50.8418 159.328C51.2686 158.932 51.5129 158.323 51.5747 157.5H54.3579Z" fill="white"/>
<path d="M58.9688 157.241V162H56.1855V148.492H61.4551C62.4694 148.492 63.36 148.678 64.127 149.049C64.9001 149.42 65.4938 149.949 65.9082 150.635C66.3226 151.316 66.5298 152.092 66.5298 152.964C66.5298 154.287 66.0752 155.333 65.166 156.1C64.263 156.86 63.0106 157.241 61.4087 157.241H58.9688ZM58.9688 154.986H61.4551C62.1911 154.986 62.7508 154.813 63.1343 154.467C63.5239 154.12 63.7188 153.626 63.7188 152.982C63.7188 152.321 63.5239 151.786 63.1343 151.377C62.7446 150.969 62.2065 150.759 61.52 150.747H58.9688V154.986Z" fill="white"/>
<path d="M74.4248 159.217H69.5449L68.6172 162H65.6577L70.686 148.492H73.2651L78.3213 162H75.3618L74.4248 159.217ZM70.2964 156.962H73.6733L71.9756 151.906L70.2964 156.962Z" fill="white"/>
<path d="M89.9829 157.5C89.8778 158.954 89.3397 160.098 88.3687 160.933C87.4038 161.768 86.1297 162.186 84.5464 162.186C82.8146 162.186 81.4508 161.604 80.4551 160.441C79.4655 159.272 78.9707 157.671 78.9707 155.636V154.81C78.9707 153.511 79.1995 152.367 79.6572 151.377C80.1149 150.388 80.7674 149.63 81.6147 149.104C82.4683 148.573 83.4578 148.307 84.5835 148.307C86.1421 148.307 87.3976 148.724 88.3501 149.559C89.3026 150.394 89.853 151.566 90.0015 153.075H87.2183C87.1502 152.203 86.9059 151.572 86.4854 151.183C86.071 150.787 85.437 150.589 84.5835 150.589C83.6558 150.589 82.96 150.923 82.4961 151.591C82.0384 152.253 81.8034 153.282 81.791 154.68V155.701C81.791 157.16 82.0106 158.227 82.4497 158.901C82.895 159.576 83.5939 159.913 84.5464 159.913C85.4061 159.913 86.0462 159.718 86.4668 159.328C86.8936 158.932 87.1379 158.323 87.1997 157.5H89.9829Z" fill="white"/>
</svg>
